{
    "accessors" : [
        {
            "bufferView" : 0, 
            "componentType" : 5121, 
            "count" : 384, 
            "max" : [
                191
            ], 
            "min" : [
                0
            ], 
            "type" : "SCALAR"
        }, 
        {
            "bufferView" : 1, 
            "componentType" : 5126, 
            "count" : 192, 
            "max" : [
                0.12329451739788055, 
                1.863035798072815, 
                0.1405140608549118
            ], 
            "min" : [
                -0.14564737677574158, 
                -0.0010014320723712444, 
                -0.12625516951084137
            ], 
            "type" : "VEC3"
        }, 
        {
            "bufferView" : 2, 
            "componentType" : 5126, 
            "count" : 192, 
            "max" : [
                0.9957821369171143, 
                0.9999999403953552, 
                0.980980634689331
            ], 
            "min" : [
                -0.9607394933700562, 
                -0.998944103717804, 
                -0.992457389831543
            ], 
            "type" : "VEC3"
        }
    ], 
    "asset" : {
        "generator" : "Khronos Blender glTF 2.0 exporter", 
        "version" : "2.0"
    }, 
    "bufferViews" : [
        {
            "buffer" : 0, 
            "byteLength" : 384, 
            "byteOffset" : 0, 
            "target" : 34963
        }, 
        {
            "buffer" : 0, 
            "byteLength" : 2304, 
            "byteOffset" : 384, 
            "target" : 34962
        }, 
        {
            "buffer" : 0, 
            "byteLength" : 2304, 
            "byteOffset" : 2688, 
            "target" : 34962
        }
    ], 
    "buffers" : [
        {
            "byteLength" : 4992, 
            "uri" : "fishingHut_post02.bin"
        }
    ], 
    "materials" : [
        {
            "name" : "support post", 
            "pbrMetallicRoughness" : {
                "baseColorFactor" : [
                    0.5514875971002517, 
                    0.5136159496548167, 
                    0.644824800563228, 
                    1.0
                ], 
                "metallicFactor" : 0.0
            }
        }
    ], 
    "meshes" : [
        {
            "name" : "Cylinder.004", 
            "primitives" : [
                {
                    "attributes" : {
                        "NORMAL" : 2, 
                        "POSITION" : 1
                    }, 
                    "indices" : 0, 
                    "material" : 0
                }
            ]
        }
    ], 
    "nodes" : [
        {
            "mesh" : 0, 
            "name" : "pier post - short.001"
        }
    ], 
    "scene" : 0, 
    "scenes" : [
        {
            "name" : "Scene", 
            "nodes" : [
                0
            ]
        }
    ]
}
