<?xml version="1.0" encoding="UTF-8" standalone="no"?>
<!DOCTYPE svg PUBLIC "-//W3C//DTD SVG 1.1//EN" "http://www.w3.org/Graphics/SVG/1.1/DTD/svg11.dtd"><svg width="100%" height="100%" viewBox="0 0 98 84" version="1.1" xmlns="http://www.w3.org/2000/svg" xmlns:xlink="http://www.w3.org/1999/xlink" xml:space="preserve" xmlns:serif="http://www.serif.com/" style="fill-rule:evenodd;clip-rule:evenodd;stroke-linejoin:round;stroke-miterlimit:2;">
    <path id="Cog-sml" serif:id="Cog sml" d="M57.815,8.206c-1.864,-0.313 -3.766,-0.313 -5.63,0l-0.894,2.868c-1.755,0.468 -3.406,1.263 -4.866,2.344l-2.8,-1.09c-1.406,1.262 -2.593,2.75 -3.51,4.402l1.685,2.487c-0.729,1.664 -1.137,3.451 -1.202,5.266l-2.598,1.51c0.111,1.886 0.534,3.741 1.253,5.488l2.996,0.234c0.846,1.607 1.989,3.04 3.367,4.222l-0.439,2.973c1.544,1.09 3.258,1.915 5.072,2.442l2.051,-2.196c1.784,0.34 3.616,0.34 5.4,0l2.051,2.196c1.814,-0.527 3.528,-1.352 5.072,-2.442l-0.439,-2.973c1.378,-1.182 2.521,-2.615 3.367,-4.222l2.996,-0.234c0.719,-1.747 1.142,-3.602 1.253,-5.488l-2.598,-1.51c-0.065,-1.815 -0.473,-3.602 -1.202,-5.266l1.685,-2.487c-0.917,-1.652 -2.104,-3.14 -3.51,-4.402l-2.8,1.09c-1.46,-1.081 -3.111,-1.876 -4.866,-2.344l-0.894,-2.868Z" style="fill:#fff;">
        <animateTransform 
                          attributeName="transform"
                          attributeType="XML"
                          type="rotate"
                          from="0 55 25"
                          to="360 55 25"
                          dur="1.5s"
                          repeatCount="indefinite">
        </animateTransform>
    </path>
    <path id="Cog-Med-2" serif:id="Cog Med 2" d="M38.32,23.191c-2.198,-0.368 -4.442,-0.368 -6.64,0l-1.055,3.384c-2.07,0.551 -4.017,1.489 -5.739,2.764l-3.303,-1.285c-1.658,1.489 -3.057,3.243 -4.14,5.191l1.988,2.934c-0.86,1.963 -1.341,4.07 -1.418,6.211l-3.064,1.781c0.13,2.225 0.63,4.413 1.478,6.473l3.533,0.276c0.998,1.896 2.346,3.585 3.972,4.98l-0.518,3.506c1.821,1.286 3.842,2.26 5.983,2.881l2.418,-2.59c2.104,0.401 4.266,0.401 6.37,0l2.418,2.59c2.141,-0.621 4.162,-1.595 5.983,-2.881l-0.518,-3.506c1.626,-1.395 2.974,-3.084 3.972,-4.98l3.533,-0.276c0.848,-2.06 1.348,-4.248 1.478,-6.473l-3.064,-1.781c-0.077,-2.141 -0.558,-4.248 -1.418,-6.211l1.988,-2.934c-1.083,-1.948 -2.482,-3.702 -4.14,-5.191l-3.303,1.285c-1.722,-1.275 -3.669,-2.213 -5.739,-2.764l-1.055,-3.384Zm-3.32,14.96c2.676,0 4.849,2.173 4.849,4.849c0,2.676 -2.173,4.849 -4.849,4.849c-2.676,0 -4.849,-2.173 -4.849,-4.849c0,-2.676 2.173,-4.849 4.849,-4.849Z" style="fill:#ffffff;" >
        <animateTransform 
                          attributeName="transform"
                          attributeType="XML"
                          type="rotate"
                          from="360 35 43"
                          to="0 35 43"
                          dur="3s"
                          repeatCount="indefinite">
        </animateTransform>
    </path>
    <path id="Cog-Med-1" serif:id="Cog Med 1" d="M75.296,31.191c-2.198,-0.368 -4.442,-0.368 -6.64,0l-1.055,3.384c-2.07,0.551 -4.018,1.489 -5.739,2.764l-3.303,-1.285c-1.659,1.489 -3.058,3.243 -4.14,5.191l1.987,2.934c-0.859,1.963 -1.34,4.07 -1.417,6.211l-3.064,1.781c0.13,2.225 0.629,4.413 1.478,6.473l3.533,0.276c0.998,1.896 2.346,3.585 3.972,4.98l-0.518,3.506c1.82,1.286 3.842,2.26 5.982,2.881l2.419,-2.59c2.104,0.401 4.265,0.401 6.37,0l2.418,2.59c2.14,-0.621 4.162,-1.595 5.982,-2.881l-0.517,-3.506c1.626,-1.395 2.973,-3.084 3.972,-4.98l3.533,-0.276c0.848,-2.06 1.347,-4.248 1.477,-6.473l-3.064,-1.781c-0.076,-2.141 -0.557,-4.248 -1.417,-6.211l1.988,-2.934c-1.083,-1.948 -2.482,-3.702 -4.14,-5.191l-3.303,1.285c-1.722,-1.275 -3.669,-2.213 -5.74,-2.764l-1.054,-3.384Zm-3.32,14.96c2.676,0 4.848,2.173 4.848,4.849c0,2.676 -2.172,4.849 -4.848,4.849c-2.676,0 -4.849,-2.173 -4.849,-4.849c0,-2.676 2.173,-4.849 4.849,-4.849Z" style="fill:#ffffff;" >
        <animateTransform 
                          attributeName="transform"
                          attributeType="XML"
                          type="rotate"
                          from="0 72 51"
                          to="360 72 51"
                          dur="3s"
                          repeatCount="indefinite">
        </animateTransform>    
    </path>
    
    <path id="Cog-Med-Open" serif:id="Cog Med Open" d="M46.047,3.325c-3.337,-0.433 -6.715,-0.433 -10.052,0l-1.614,6.347c-3.168,0.65 -6.222,1.762 -9.067,3.3l-5.316,-3.824c-2.835,1.812 -5.423,3.984 -7.7,6.461l2.843,5.9c-2.009,2.534 -3.634,5.349 -4.824,8.355l-6.531,0.488c-1.007,3.211 -1.593,6.538 -1.746,9.899l5.97,2.692c0.091,3.232 0.655,6.434 1.676,9.502l-4.69,4.572c1.293,3.106 2.983,6.032 5.026,8.704l6.304,-1.775c2.147,2.418 4.637,4.508 7.391,6.202l-0.653,6.516c2.987,1.549 6.161,2.704 9.445,3.438l3.688,-5.412c3.199,0.472 6.449,0.472 9.648,0l3.688,5.412c3.284,-0.734 6.458,-1.889 9.445,-3.438l-0.653,-6.516c2.754,-1.694 5.244,-3.784 7.391,-6.202l6.304,1.775c2.043,-2.672 3.733,-5.598 5.026,-8.704l-4.69,-4.572c1.021,-3.068 1.585,-6.27 1.675,-9.502l5.971,-2.692c-0.153,-3.361 -0.74,-6.688 -1.746,-9.899l-6.531,-0.488c-1.19,-3.006 -2.815,-5.821 -4.824,-8.355l2.843,-5.9c-2.277,-2.477 -4.865,-4.649 -7.7,-6.461l-5.316,3.824c-2.845,-1.538 -5.899,-2.65 -9.067,-3.3l-1.614,-6.347Zm-5.026,16.883c12.039,0 21.813,9.774 21.813,21.813c0,12.039 -9.774,21.813 -21.813,21.813c-12.039,0 -21.813,-9.774 -21.813,-21.813c0,-12.039 9.774,-21.813 21.813,-21.813Z" style="fill:#ffffff;" >
        <animateTransform 
                          attributeName="transform"
                          attributeType="XML"
                          type="rotate"
                          from="360 41 42"
                          to="0 41 42"
                          dur="6s"
                          repeatCount="indefinite">
        </animateTransform>
    </path>
    </svg>
