<?xml version="1.0" encoding="UTF-8" standalone="no"?>
<!DOCTYPE svg PUBLIC "-//W3C//DTD SVG 1.1//EN" "http://www.w3.org/Graphics/SVG/1.1/DTD/svg11.dtd"><svg width="100%" height="100%" viewBox="0 0 98 84" version="1.1" xmlns="http://www.w3.org/2000/svg" xmlns:xlink="http://www.w3.org/1999/xlink" xml:space="preserve" xmlns:serif="http://www.serif.com/" style="fill-rule:evenodd;clip-rule:evenodd;stroke-linejoin:round;stroke-miterlimit:2;">
    <path id="Cog-sml" serif:id="Cog sml" d="M43.843,9.234c-1.863,-0.312 -3.766,-0.312 -5.629,0l-0.894,2.869c-1.756,0.467 -3.407,1.262 -4.866,2.343l-2.801,-1.089c-1.406,1.262 -2.592,2.749 -3.51,4.401l1.685,2.488c-0.728,1.664 -1.136,3.45 -1.201,5.265l-2.598,1.511c0.11,1.886 0.533,3.741 1.253,5.488l2.995,0.233c0.847,1.608 1.989,3.04 3.368,4.223l-0.439,2.973c1.543,1.09 3.257,1.915 5.072,2.442l2.05,-2.196c1.784,0.34 3.617,0.34 5.401,0l2.05,2.196c1.815,-0.527 3.529,-1.352 5.072,-2.442l-0.438,-2.973c1.378,-1.183 2.521,-2.615 3.367,-4.223l2.996,-0.233c0.719,-1.747 1.142,-3.602 1.252,-5.488l-2.597,-1.511c-0.066,-1.815 -0.473,-3.601 -1.202,-5.265l1.685,-2.488c-0.918,-1.652 -2.104,-3.139 -3.51,-4.401l-2.8,1.089c-1.46,-1.081 -3.111,-1.876 -4.866,-2.343l-0.895,-2.869Z" style="fill:#ffeaa6;">
        <animateTransform 
                          attributeName="transform"
                          attributeType="XML"
                          type="rotate"
                          from="360 41 26"
                          to="0 41 26"
                          dur="3s"
                          repeatCount="indefinite">
        </animateTransform>
    </path>
    <path id="Cog-Med-2" serif:id="Cog Med 2" d="M38.32,23.191c-2.198,-0.368 -4.442,-0.368 -6.64,0l-1.055,3.384c-2.07,0.551 -4.017,1.489 -5.739,2.764l-3.303,-1.285c-1.658,1.489 -3.057,3.243 -4.14,5.191l1.988,2.934c-0.86,1.963 -1.341,4.07 -1.418,6.211l-3.064,1.781c0.13,2.225 0.63,4.413 1.478,6.473l3.533,0.276c0.998,1.896 2.346,3.585 3.972,4.98l-0.518,3.506c1.821,1.286 3.842,2.26 5.983,2.881l2.418,-2.59c2.104,0.401 4.266,0.401 6.37,0l2.418,2.59c2.141,-0.621 4.162,-1.595 5.983,-2.881l-0.518,-3.506c1.626,-1.395 2.974,-3.084 3.972,-4.98l3.533,-0.276c0.848,-2.06 1.348,-4.248 1.478,-6.473l-3.064,-1.781c-0.077,-2.141 -0.558,-4.248 -1.418,-6.211l1.988,-2.934c-1.083,-1.948 -2.482,-3.702 -4.14,-5.191l-3.303,1.285c-1.722,-1.275 -3.669,-2.213 -5.739,-2.764l-1.055,-3.384Zm-3.32,14.96c2.676,0 4.849,2.173 4.849,4.849c0,2.676 -2.173,4.849 -4.849,4.849c-2.676,0 -4.849,-2.173 -4.849,-4.849c0,-2.676 2.173,-4.849 4.849,-4.849Z" style="fill:#ffd03d;" >
        <animateTransform 
                          attributeName="transform"
                          attributeType="XML"
                          type="rotate"
                          from="0 35 43"
                          to="360 35 43"
                          dur="5s"
                          repeatCount="indefinite">
        </animateTransform>
    </path>
    <path id="Cog-Med-1" serif:id="Cog Med 1" d="M75.296,31.191c-2.198,-0.368 -4.442,-0.368 -6.64,0l-1.055,3.384c-2.07,0.551 -4.018,1.489 -5.739,2.764l-3.303,-1.285c-1.659,1.489 -3.058,3.243 -4.14,5.191l1.987,2.934c-0.859,1.963 -1.34,4.07 -1.417,6.211l-3.064,1.781c0.13,2.225 0.629,4.413 1.478,6.473l3.533,0.276c0.998,1.896 2.346,3.585 3.972,4.98l-0.518,3.506c1.82,1.286 3.842,2.26 5.982,2.881l2.419,-2.59c2.104,0.401 4.265,0.401 6.37,0l2.418,2.59c2.14,-0.621 4.162,-1.595 5.982,-2.881l-0.517,-3.506c1.626,-1.395 2.973,-3.084 3.972,-4.98l3.533,-0.276c0.848,-2.06 1.347,-4.248 1.477,-6.473l-3.064,-1.781c-0.076,-2.141 -0.557,-4.248 -1.417,-6.211l1.988,-2.934c-1.083,-1.948 -2.482,-3.702 -4.14,-5.191l-3.303,1.285c-1.722,-1.275 -3.669,-2.213 -5.74,-2.764l-1.054,-3.384Zm-3.32,14.96c2.676,0 4.848,2.173 4.848,4.849c0,2.676 -2.172,4.849 -4.848,4.849c-2.676,0 -4.849,-2.173 -4.849,-4.849c0,-2.676 2.173,-4.849 4.849,-4.849Z" style="fill:#ffd03d;" >
        <animateTransform 
                          attributeName="transform"
                          attributeType="XML"
                          type="rotate"
                          from="360 72 51"
                          to="0 72 51"
                          dur="5s"
                          repeatCount="indefinite">
        </animateTransform>    
    </path>
    
    <path id="Cog-Med-Open" serif:id="Cog Med Open" d="M46.047,3.325c-3.337,-0.433 -6.715,-0.433 -10.052,0l-1.614,6.347c-3.168,0.65 -6.222,1.762 -9.067,3.3l-5.316,-3.824c-2.835,1.812 -5.423,3.984 -7.7,6.461l2.843,5.9c-2.009,2.534 -3.634,5.349 -4.824,8.355l-6.531,0.488c-1.007,3.211 -1.593,6.538 -1.746,9.899l5.97,2.692c0.091,3.232 0.655,6.434 1.676,9.502l-4.69,4.572c1.293,3.106 2.983,6.032 5.026,8.704l6.304,-1.775c2.147,2.418 4.637,4.508 7.391,6.202l-0.653,6.516c2.987,1.549 6.161,2.704 9.445,3.438l3.688,-5.412c3.199,0.472 6.449,0.472 9.648,0l3.688,5.412c3.284,-0.734 6.458,-1.889 9.445,-3.438l-0.653,-6.516c2.754,-1.694 5.244,-3.784 7.391,-6.202l6.304,1.775c2.043,-2.672 3.733,-5.598 5.026,-8.704l-4.69,-4.572c1.021,-3.068 1.585,-6.27 1.675,-9.502l5.971,-2.692c-0.153,-3.361 -0.74,-6.688 -1.746,-9.899l-6.531,-0.488c-1.19,-3.006 -2.815,-5.821 -4.824,-8.355l2.843,-5.9c-2.277,-2.477 -4.865,-4.649 -7.7,-6.461l-5.316,3.824c-2.845,-1.538 -5.899,-2.65 -9.067,-3.3l-1.614,-6.347Zm-5.026,16.883c12.039,0 21.813,9.774 21.813,21.813c0,12.039 -9.774,21.813 -21.813,21.813c-12.039,0 -21.813,-9.774 -21.813,-21.813c0,-12.039 9.774,-21.813 21.813,-21.813Z" style="fill:#ffb100;" >
        <animateTransform 
                          attributeName="transform"
                          attributeType="XML"
                          type="rotate"
                          from="360 41 42"
                          to="0 41 42"
                          dur="4s"
                          repeatCount="indefinite">
        </animateTransform>
    </path>
    
    <path id="LoadingTxt" d="M26.33,47.72l-1.602,0l0,-14.58l1.289,-0.518l0.313,0l0,15.098Z" style="fill:#0014a9;fill-rule:nonzero;" />
    <path d="M35.24,47.935c-0.736,0 -1.414,-0.134 -2.036,-0.401c-0.622,-0.267 -1.159,-0.63 -1.611,-1.089c-0.453,-0.459 -0.806,-0.996 -1.06,-1.611c-0.254,-0.615 -0.381,-1.274 -0.381,-1.978c0,-0.735 0.127,-1.427 0.381,-2.075c0.254,-0.648 0.607,-1.212 1.06,-1.694c0.452,-0.482 0.989,-0.861 1.611,-1.138c0.622,-0.276 1.3,-0.415 2.036,-0.415c0.729,0 1.403,0.127 2.022,0.381c0.618,0.254 1.154,0.602 1.606,1.045c0.453,0.443 0.806,0.962 1.06,1.558c0.254,0.595 0.38,1.235 0.38,1.919c0,0.755 -0.126,1.466 -0.38,2.133c-0.254,0.668 -0.607,1.25 -1.06,1.748c-0.452,0.498 -0.988,0.892 -1.606,1.182c-0.619,0.29 -1.293,0.435 -2.022,0.435Zm0.381,-0.733c0.417,0 0.799,-0.101 1.147,-0.303c0.349,-0.201 0.65,-0.473 0.904,-0.815c0.254,-0.342 0.451,-0.737 0.591,-1.187c0.14,-0.449 0.21,-0.924 0.21,-1.425c0,-0.723 -0.066,-1.4 -0.196,-2.032c-0.13,-0.631 -0.343,-1.181 -0.639,-1.65c-0.297,-0.469 -0.681,-0.838 -1.153,-1.108c-0.472,-0.271 -1.05,-0.406 -1.733,-0.406c-0.358,0 -0.705,0.096 -1.04,0.288c-0.335,0.193 -0.632,0.455 -0.889,0.787c-0.257,0.332 -0.462,0.721 -0.615,1.167c-0.153,0.446 -0.23,0.919 -0.23,1.42c0,0.73 0.082,1.413 0.245,2.051c0.162,0.638 0.398,1.195 0.708,1.67c0.309,0.475 0.69,0.851 1.142,1.128c0.453,0.277 0.969,0.415 1.548,0.415Z" style="fill:#0014a9;fill-rule:nonzero;" />
    <path d="M51.016,46.353c0,0.299 0.091,0.569 0.273,0.81c0.183,0.241 0.411,0.427 0.684,0.557l-1.738,0c-0.228,-0.111 -0.422,-0.285 -0.581,-0.523c-0.16,-0.237 -0.24,-0.519 -0.24,-0.844c-0.195,0.136 -0.411,0.296 -0.649,0.478c-0.238,0.182 -0.503,0.355 -0.796,0.518c-0.293,0.162 -0.618,0.301 -0.977,0.415c-0.358,0.114 -0.755,0.171 -1.191,0.171c-0.365,0 -0.692,-0.064 -0.981,-0.191c-0.29,-0.127 -0.536,-0.301 -0.738,-0.522c-0.201,-0.222 -0.358,-0.485 -0.468,-0.791c-0.111,-0.306 -0.166,-0.635 -0.166,-0.987c0,-0.436 0.083,-0.83 0.249,-1.181c0.166,-0.352 0.393,-0.669 0.683,-0.952c0.29,-0.284 0.628,-0.534 1.016,-0.752c0.387,-0.219 0.802,-0.414 1.245,-0.586c0.443,-0.173 0.902,-0.324 1.377,-0.454c0.475,-0.131 0.941,-0.251 1.396,-0.362l0,-0.517c0,-0.456 -0.035,-0.84 -0.107,-1.153c-0.072,-0.312 -0.184,-0.564 -0.337,-0.757c-0.153,-0.192 -0.347,-0.328 -0.581,-0.41c-0.234,-0.081 -0.518,-0.122 -0.85,-0.122c-0.306,0 -0.589,0.056 -0.849,0.166c-0.261,0.111 -0.489,0.259 -0.684,0.445c-0.195,0.185 -0.355,0.403 -0.478,0.654c-0.124,0.251 -0.205,0.516 -0.245,0.796l-1.425,0c0.052,-0.43 0.195,-0.814 0.429,-1.153c0.235,-0.338 0.529,-0.623 0.884,-0.854c0.355,-0.231 0.755,-0.409 1.201,-0.532c0.446,-0.124 0.91,-0.186 1.392,-0.186c0.618,0 1.136,0.064 1.553,0.191c0.416,0.127 0.75,0.304 1.001,0.532c0.25,0.228 0.429,0.506 0.537,0.835c0.107,0.329 0.161,0.692 0.161,1.089l0,6.172Zm-1.602,-4.454c-0.501,0.137 -1.012,0.308 -1.533,0.513c-0.521,0.205 -0.991,0.435 -1.411,0.689c-0.42,0.253 -0.763,0.533 -1.03,0.839c-0.267,0.306 -0.401,0.632 -0.401,0.977c0,0.247 0.051,0.48 0.152,0.698c0.101,0.218 0.236,0.41 0.405,0.576c0.169,0.166 0.363,0.297 0.581,0.391c0.218,0.094 0.444,0.142 0.679,0.142c0.254,0 0.49,-0.036 0.708,-0.108c0.218,-0.071 0.428,-0.164 0.63,-0.278c0.201,-0.114 0.402,-0.244 0.6,-0.391c0.199,-0.146 0.406,-0.298 0.62,-0.454l0,-3.594Z" style="fill:#0014a9;fill-rule:nonzero;" />
    <path d="M62.075,46.753c-0.319,0.241 -0.632,0.438 -0.938,0.591c-0.306,0.153 -0.607,0.273 -0.903,0.361c-0.296,0.088 -0.583,0.148 -0.859,0.181c-0.277,0.032 -0.546,0.049 -0.806,0.049c-0.56,0 -1.084,-0.137 -1.572,-0.411c-0.489,-0.273 -0.913,-0.641 -1.275,-1.103c-0.361,-0.462 -0.647,-1.001 -0.859,-1.616c-0.212,-0.616 -0.317,-1.265 -0.317,-1.949c0,-0.677 0.133,-1.334 0.4,-1.972c0.267,-0.638 0.628,-1.206 1.084,-1.704c0.456,-0.498 0.99,-0.897 1.602,-1.197c0.612,-0.299 1.266,-0.449 1.962,-0.449c0.215,0 0.419,0.012 0.611,0.034c0.192,0.023 0.384,0.067 0.576,0.132c0.192,0.065 0.392,0.16 0.601,0.283c0.208,0.124 0.439,0.284 0.693,0.479l0,-5.322l1.269,-0.518l0.313,0l0,15.098l-1.582,0l0,-0.967Zm0,-5.85c0,-0.39 -0.078,-0.747 -0.234,-1.069c-0.157,-0.322 -0.362,-0.599 -0.616,-0.83c-0.254,-0.231 -0.54,-0.41 -0.859,-0.537c-0.319,-0.127 -0.641,-0.191 -0.967,-0.191c-0.423,0 -0.82,0.098 -1.191,0.293c-0.371,0.196 -0.694,0.471 -0.967,0.826c-0.274,0.354 -0.49,0.778 -0.649,1.269c-0.16,0.492 -0.24,1.034 -0.24,1.626c0,0.638 0.087,1.234 0.259,1.787c0.173,0.554 0.41,1.037 0.713,1.45c0.303,0.414 0.656,0.739 1.059,0.977c0.404,0.238 0.837,0.356 1.299,0.356c0.235,0 0.466,-0.027 0.694,-0.083c0.228,-0.055 0.444,-0.13 0.649,-0.224c0.205,-0.095 0.392,-0.204 0.562,-0.327c0.169,-0.124 0.315,-0.254 0.439,-0.391l0.049,0l0,-4.932Z" style="fill:#0014a9;fill-rule:nonzero;" />
    <path d="M68.3,38.052l1.269,-0.518l0.313,0l0,10.186l-1.582,0l0,-9.668Zm-0.156,-4.16c0,-0.157 0.024,-0.303 0.073,-0.44c0.049,-0.137 0.115,-0.257 0.2,-0.361c0.085,-0.104 0.184,-0.186 0.298,-0.244c0.114,-0.059 0.236,-0.088 0.366,-0.088c0.13,0 0.252,0.029 0.366,0.088c0.114,0.058 0.214,0.14 0.298,0.244c0.085,0.104 0.152,0.224 0.2,0.361c0.049,0.137 0.074,0.283 0.074,0.44c0,0.156 -0.025,0.302 -0.074,0.439c-0.048,0.137 -0.115,0.257 -0.2,0.361c-0.084,0.105 -0.184,0.186 -0.298,0.245c-0.114,0.058 -0.236,0.087 -0.366,0.087c-0.13,0 -0.252,-0.029 -0.366,-0.087c-0.114,-0.059 -0.213,-0.14 -0.298,-0.245c-0.085,-0.104 -0.151,-0.224 -0.2,-0.361c-0.049,-0.137 -0.073,-0.283 -0.073,-0.439Z" style="fill:#0014a9;fill-rule:nonzero;" />
    <path d="M75.824,37.534l0.302,0l0,1.944c0.775,-0.678 1.49,-1.171 2.144,-1.48c0.654,-0.309 1.294,-0.464 1.919,-0.464c0.319,0 0.62,0.078 0.903,0.235c0.283,0.156 0.529,0.371 0.738,0.644c0.208,0.274 0.372,0.594 0.493,0.962c0.12,0.368 0.18,0.76 0.18,1.177l0,7.168l-1.591,0l0,-6.826c0,-0.332 -0.044,-0.624 -0.132,-0.874c-0.088,-0.251 -0.212,-0.461 -0.371,-0.63c-0.16,-0.17 -0.349,-0.298 -0.567,-0.386c-0.218,-0.088 -0.457,-0.132 -0.717,-0.132c-0.228,0 -0.469,0.044 -0.723,0.132c-0.254,0.088 -0.51,0.205 -0.767,0.351c-0.257,0.147 -0.514,0.318 -0.771,0.513c-0.257,0.195 -0.503,0.401 -0.738,0.615l0,7.237l-1.601,0l0,-9.678l1.299,-0.508Z" style="fill:#0014a9;fill-rule:nonzero;" />
    <path d="M96.033,39.087l-1.855,0c0.182,0.247 0.328,0.542 0.439,0.884c0.111,0.341 0.166,0.688 0.166,1.04c0,0.521 -0.109,0.993 -0.327,1.416c-0.218,0.423 -0.523,0.788 -0.913,1.094c-0.391,0.305 -0.858,0.541 -1.401,0.708c-0.544,0.166 -1.141,0.249 -1.792,0.249c-0.235,0 -0.443,-0.007 -0.625,-0.02c-0.183,-0.013 -0.372,-0.052 -0.567,-0.117c-0.371,0.176 -0.654,0.353 -0.85,0.532c-0.195,0.179 -0.292,0.363 -0.292,0.552c0,0.195 0.125,0.353 0.376,0.473c0.25,0.121 0.607,0.191 1.069,0.21c0.618,0.026 1.234,0.054 1.846,0.083c0.612,0.03 1.227,0.057 1.845,0.083c0.554,0.026 1.016,0.095 1.387,0.205c0.371,0.111 0.667,0.263 0.889,0.455c0.221,0.192 0.377,0.42 0.468,0.683c0.092,0.264 0.137,0.558 0.137,0.884c0,0.579 -0.13,1.105 -0.391,1.577c-0.26,0.472 -0.636,0.874 -1.127,1.206c-0.492,0.332 -1.093,0.589 -1.802,0.772c-0.71,0.182 -1.511,0.273 -2.403,0.273c-1.595,0 -2.783,-0.187 -3.564,-0.561c-0.781,-0.375 -1.172,-0.871 -1.172,-1.49c0,-0.286 0.062,-0.561 0.186,-0.825c0.123,-0.264 0.286,-0.513 0.488,-0.747c0.202,-0.234 0.425,-0.454 0.669,-0.659c0.244,-0.205 0.49,-0.392 0.737,-0.562c-0.332,-0.11 -0.609,-0.267 -0.83,-0.468c-0.221,-0.202 -0.332,-0.45 -0.332,-0.743c0,-0.423 0.16,-0.822 0.479,-1.196c0.319,-0.374 0.794,-0.708 1.425,-1.001c-0.631,-0.273 -1.126,-0.666 -1.484,-1.177c-0.358,-0.511 -0.537,-1.105 -0.537,-1.782c0,-0.488 0.107,-0.95 0.322,-1.387c0.215,-0.436 0.511,-0.817 0.889,-1.142c0.377,-0.326 0.822,-0.583 1.333,-0.772c0.511,-0.188 1.059,-0.283 1.645,-0.283c0.28,0 0.557,0.02 0.83,0.059c0.274,0.039 0.529,0.091 0.767,0.156c0.238,0.065 0.451,0.14 0.64,0.225c0.188,0.084 0.338,0.175 0.449,0.273l2.783,0l0,0.84Zm-7.549,8.633c-0.149,0.11 -0.304,0.232 -0.464,0.366c-0.159,0.133 -0.307,0.272 -0.444,0.415c-0.137,0.143 -0.249,0.285 -0.337,0.425c-0.088,0.14 -0.132,0.275 -0.132,0.405c0,0.221 0.083,0.433 0.249,0.635c0.166,0.202 0.414,0.381 0.743,0.537c0.328,0.156 0.74,0.28 1.235,0.371c0.495,0.091 1.071,0.137 1.728,0.137c0.697,0 1.307,-0.054 1.831,-0.161c0.525,-0.108 0.961,-0.248 1.309,-0.42c0.348,-0.173 0.61,-0.367 0.786,-0.581c0.176,-0.215 0.264,-0.43 0.264,-0.645c0,-0.449 -0.195,-0.773 -0.586,-0.972c-0.391,-0.198 -1.003,-0.297 -1.836,-0.297c-0.475,0 -0.942,-0.007 -1.401,-0.02c-0.459,-0.013 -0.884,-0.031 -1.275,-0.054c-0.39,-0.022 -0.732,-0.047 -1.025,-0.073c-0.293,-0.026 -0.508,-0.049 -0.645,-0.068Zm2.198,-3.76c0.306,0 0.6,-0.064 0.883,-0.19c0.284,-0.127 0.533,-0.302 0.747,-0.523c0.215,-0.221 0.388,-0.48 0.518,-0.776c0.13,-0.297 0.195,-0.617 0.195,-0.962c0,-0.488 -0.071,-0.943 -0.215,-1.363c-0.143,-0.419 -0.338,-0.784 -0.585,-1.093c-0.248,-0.31 -0.534,-0.552 -0.86,-0.728c-0.325,-0.176 -0.674,-0.263 -1.045,-0.263c-0.371,0 -0.69,0.068 -0.957,0.205c-0.267,0.136 -0.486,0.327 -0.659,0.571c-0.173,0.244 -0.299,0.53 -0.381,0.859c-0.081,0.329 -0.122,0.682 -0.122,1.06c0,0.449 0.06,0.869 0.181,1.26c0.12,0.39 0.289,0.73 0.508,1.02c0.218,0.29 0.478,0.516 0.781,0.679c0.303,0.163 0.639,0.244 1.011,0.244Z" style="fill:#0014a9;fill-rule:nonzero;" /></svg>
