<?xml version="1.0" encoding="UTF-8" standalone="no"?><!DOCTYPE svg PUBLIC "-//W3C//DTD SVG 1.1//EN" "http://www.w3.org/Graphics/SVG/1.1/DTD/svg11.dtd">
<svg width="100%" height="100%" viewBox="0 0 300 300" version="1.1" xmlns="http://www.w3.org/2000/svg" xmlns:xlink="http://www.w3.org/1999/xlink" xml:space="preserve" xmlns:serif="http://www.serif.com/" style="fill-rule:evenodd;clip-rule:evenodd;stroke-linecap:round;stroke-linejoin:round;stroke-miterlimit:1.41421;">
    <path id="Cog-Large" serif:id="Cog Large" d="M159.671,50.469c-6.432,-0.625 -12.91,-0.625 -19.342,0l-3.186,15.509c-6.166,0.943 -12.208,2.563 -18.019,4.828l-10.514,-11.838c-5.883,2.675 -11.493,5.914 -16.751,9.671l4.995,15.024c-4.867,3.9 -9.291,8.324 -13.191,13.191l-15.024,-4.995c-3.757,5.258 -6.996,10.868 -9.671,16.751l11.838,10.514c-2.265,5.811 -3.885,11.853 -4.828,18.019l-15.509,3.186c-0.625,6.432 -0.625,12.91 0,19.342l15.509,3.186c0.943,6.166 2.563,12.208 4.828,18.019l-11.838,10.514c2.675,5.883 5.914,11.493 9.671,16.751l15.024,-4.995c3.9,4.867 8.324,9.291 13.191,13.191l-4.995,15.024c5.258,3.757 10.868,6.996 16.751,9.671l10.514,-11.838c5.811,2.265 11.853,3.885 18.019,4.828l3.186,15.509c6.432,0.625 12.91,0.625 19.342,0l3.186,-15.509c6.166,-0.943 12.208,-2.563 18.019,-4.828l10.514,11.838c5.883,-2.675 11.493,-5.914 16.751,-9.671l-4.995,-15.024c4.867,-3.9 9.291,-8.324 13.191,-13.191l15.024,4.995c3.757,-5.258 6.996,-10.868 9.671,-16.751l-11.838,-10.514c2.265,-5.811 3.885,-11.853 4.828,-18.019l15.509,-3.186c0.625,-6.432 0.625,-12.91 0,-19.342l-15.509,-3.186c-0.943,-6.166 -2.563,-12.208 -4.828,-18.019l11.838,-10.514c-2.675,-5.883 -5.914,-11.493 -9.671,-16.751l-15.024,4.995c-3.9,-4.867 -8.324,-9.291 -13.191,-13.191l4.995,-15.024c-5.258,-3.757 -10.868,-6.996 -16.751,-9.671l-10.514,11.838c-5.811,-2.265 -11.853,-3.885 -18.019,-4.828l-3.186,-15.509Zm-9.671,28.556c39.172,0 70.975,31.803 70.975,70.975c0,39.172 -31.803,70.975 -70.975,70.975c-39.172,0 -70.975,-31.803 -70.975,-70.975c0,-39.172 31.803,-70.975 70.975,-70.975Z" style="fill:#ffc200;">
        <animateTransform 
                          attributeName="transform"
                          attributeType="XML"
                          type="rotate"
                          from="0 150 150"
                          to="360 150 150"
                          dur="8s"
                          repeatCount="indefinite">
        </animateTransform>
    </path>
    
    <path id="Cog-Med-Open" serif:id="Cog Med Open" d="M167.033,83.246c-3.341,-0.434 -6.725,-0.434 -10.066,0l-1.617,6.356c-3.172,0.652 -6.232,1.765 -9.08,3.305l-5.325,-3.83c-2.839,1.816 -5.431,3.991 -7.711,6.471l2.847,5.909c-2.012,2.538 -3.639,5.357 -4.832,8.368l-6.54,0.489c-1.008,3.215 -1.596,6.547 -1.749,9.913l5.98,2.696c0.09,3.238 0.656,6.444 1.678,9.516l-4.697,4.579c1.295,3.111 2.987,6.041 5.033,8.718l6.314,-1.778c2.15,2.422 4.644,4.514 7.402,6.211l-0.654,6.527c2.991,1.55 6.171,2.708 9.459,3.443l3.694,-5.421c3.203,0.473 6.459,0.473 9.662,0l3.694,5.421c3.288,-0.735 6.468,-1.893 9.459,-3.443l-0.654,-6.527c2.758,-1.697 5.252,-3.789 7.402,-6.211l6.314,1.778c2.046,-2.677 3.738,-5.607 5.033,-8.718l-4.697,-4.579c1.022,-3.072 1.588,-6.278 1.678,-9.516l5.98,-2.696c-0.153,-3.366 -0.741,-6.698 -1.749,-9.913l-6.54,-0.489c-1.193,-3.011 -2.82,-5.83 -4.832,-8.368l2.847,-5.909c-2.28,-2.48 -4.872,-4.655 -7.711,-6.471l-5.325,3.83c-2.848,-1.54 -5.908,-2.653 -9.08,-3.305l-1.617,-6.356Zm-5.033,16.908c12.057,0 21.846,9.789 21.846,21.846c0,12.057 -9.789,21.846 -21.846,21.846c-12.057,0 -21.846,-9.789 -21.846,-21.846c0,-12.057 9.789,-21.846 21.846,-21.846Z" style="fill:#ffc200;">
        <animateTransform 
                          attributeName="transform"
                          attributeType="XML"
                          type="rotate"
                          from="360 162 122"
                          to="0 162 122"
                          dur="4s"
                          repeatCount="indefinite">
        </animateTransform>
    </path>
    
    <path id="Cog-Med-2" serif:id="Cog Med 2" d="M128.325,167.162c-2.201,-0.369 -4.449,-0.369 -6.65,0l-1.056,3.388c-2.074,0.552 -4.024,1.492 -5.748,2.768l-3.308,-1.287c-1.661,1.491 -3.062,3.248 -4.146,5.199l1.99,2.939c-0.861,1.965 -1.342,4.076 -1.419,6.22l-3.069,1.784c0.13,2.228 0.63,4.419 1.48,6.483l3.539,0.276c0.999,1.898 2.349,3.591 3.977,4.988l-0.518,3.511c1.823,1.288 3.848,2.263 5.991,2.885l2.422,-2.594c2.108,0.402 4.272,0.402 6.38,0l2.422,2.594c2.143,-0.622 4.168,-1.597 5.991,-2.885l-0.518,-3.511c1.628,-1.397 2.978,-3.09 3.977,-4.988l3.539,-0.276c0.85,-2.064 1.35,-4.255 1.48,-6.483l-3.069,-1.784c-0.077,-2.144 -0.558,-4.255 -1.419,-6.22l1.99,-2.939c-1.084,-1.951 -2.485,-3.708 -4.146,-5.199l-3.308,1.287c-1.724,-1.276 -3.674,-2.216 -5.748,-2.768l-1.056,-3.388Zm-3.325,14.982c2.68,0 4.856,2.176 4.856,4.856c0,2.68 -2.176,4.856 -4.856,4.856c-2.68,0 -4.856,-2.176 -4.856,-4.856c0,-2.68 2.176,-4.856 4.856,-4.856Z" style="fill:#ffc200;">
        <animateTransform 
                          attributeName="transform"
                          attributeType="XML"
                          type="rotate"
                          from="0 125 187"
                          to="360 125 187"
                          dur="5s"
                          repeatCount="indefinite">
        </animateTransform>
    </path>
    
    <path id="Cog-Med-1" serif:id="Cog Med 1" d="M165.306,175.162c-2.202,-0.369 -4.449,-0.369 -6.65,0l-1.057,3.388c-2.073,0.552 -4.023,1.492 -5.748,2.768l-3.308,-1.287c-1.66,1.491 -3.062,3.248 -4.146,5.199l1.991,2.939c-0.861,1.965 -1.343,4.076 -1.42,6.22l-3.068,1.784c0.13,2.228 0.63,4.419 1.48,6.483l3.538,0.276c1,1.898 2.35,3.591 3.978,4.988l-0.518,3.511c1.823,1.288 3.847,2.263 5.991,2.885l2.422,-2.594c2.107,0.402 4.272,0.402 6.38,0l2.422,2.594c2.143,-0.622 4.168,-1.597 5.991,-2.885l-0.519,-3.511c1.629,-1.397 2.978,-3.09 3.978,-4.988l3.539,-0.276c0.849,-2.064 1.349,-4.255 1.48,-6.483l-3.069,-1.784c-0.077,-2.144 -0.559,-4.255 -1.42,-6.22l1.991,-2.939c-1.084,-1.951 -2.485,-3.708 -4.146,-5.199l-3.308,1.287c-1.724,-1.276 -3.675,-2.216 -5.748,-2.768l-1.056,-3.388Zm-3.325,14.982c2.68,0 4.856,2.176 4.856,4.856c0,2.68 -2.176,4.856 -4.856,4.856c-2.68,0 -4.856,-2.176 -4.856,-4.856c0,-2.68 2.176,-4.856 4.856,-4.856Z" style="fill:#ffc200;">
        <animateTransform 
                          attributeName="transform"
                          attributeType="XML"
                          type="rotate"
                          from="360 162 195"
                          to="0 162 195"
                          dur="5s"
                          repeatCount="indefinite">
        </animateTransform>
    </path>
    
    <path id="Cog-sml" serif:id="Cog sml" d="M164.819,105.18c-1.866,-0.312 -3.772,-0.312 -5.638,0l-0.896,2.873c-1.757,0.468 -3.411,1.265 -4.873,2.347l-2.805,-1.091c-1.408,1.264 -2.596,2.754 -3.515,4.408l1.688,2.492c-0.73,1.666 -1.138,3.455 -1.204,5.273l-2.601,1.512c0.11,1.89 0.534,3.747 1.254,5.497l3,0.234c0.848,1.61 1.992,3.044 3.373,4.229l-0.44,2.977c1.546,1.091 3.263,1.918 5.08,2.446l2.054,-2.2c1.786,0.341 3.622,0.341 5.408,0l2.054,2.2c1.817,-0.528 3.534,-1.355 5.08,-2.446l-0.44,-2.977c1.381,-1.185 2.525,-2.619 3.373,-4.229l3,-0.234c0.72,-1.75 1.144,-3.607 1.254,-5.497l-2.601,-1.512c-0.066,-1.818 -0.474,-3.607 -1.204,-5.273l1.688,-2.492c-0.919,-1.654 -2.107,-3.144 -3.515,-4.408l-2.805,1.091c-1.462,-1.082 -3.116,-1.879 -4.873,-2.347l-0.896,-2.873Z" style="fill:#ffc200;">
        <animateTransform 
                          attributeName="transform"
                          attributeType="XML"
                          type="rotate"
                          from="0 162 122"
                          to="360 162 122"
                          dur="3s"
                          repeatCount="indefinite">
        </animateTransform>
    </path>
    
    <g id="crowtrees-studio" serif:id="crowtrees studio">
        <path id="RoundBox" d="M290.657,150c0,-17.953 -14.576,-32.529 -32.529,-32.529l-216.256,0c-17.953,0 -32.529,14.576 -32.529,32.529c0,17.953 14.576,32.529 32.529,32.529l216.256,0c17.953,0 32.529,-14.576 32.529,-32.529Z" style="fill:none;stroke:#000;stroke-width:6px;"/>
        <path d="M290.657,150c0,-17.953 -14.576,-32.529 -32.529,-32.529l-216.256,0c-17.953,0 -32.529,14.576 -32.529,32.529c0,17.953 14.576,32.529 32.529,32.529l216.256,0c17.953,0 32.529,-14.576 32.529,-32.529Z" style="fill:#fff;"/>
        <g id="crowtrees.studio">
            <path id="Bar" d="M40.074,156.743l219.852,0" style="fill:none;fill-rule:nonzero;stroke:#808080;stroke-width:2px;stroke-linecap:butt;stroke-linejoin:miter;stroke-miterlimit:10;"/>
            <g id="Studio"><path id="s" d="M87.883,174.702c0.348,0 0.689,-0.048 1.022,-0.144c0.333,-0.096 0.631,-0.237 0.894,-0.422c0.263,-0.185 0.476,-0.413 0.639,-0.683c0.163,-0.27 0.244,-0.583 0.244,-0.939c0,-0.422 -0.109,-0.799 -0.328,-1.132c-0.218,-0.333 -0.507,-0.639 -0.866,-0.916c-0.359,-0.278 -0.768,-0.539 -1.227,-0.783c-0.459,-0.245 -0.927,-0.489 -1.405,-0.733c-0.477,-0.245 -0.944,-0.502 -1.399,-0.772c-0.455,-0.27 -0.862,-0.57 -1.222,-0.9c-0.359,-0.329 -0.647,-0.699 -0.866,-1.11c-0.218,-0.411 -0.327,-0.883 -0.327,-1.416c0,-0.533 0.1,-1.027 0.299,-1.483c0.2,-0.455 0.493,-0.849 0.878,-1.182c0.385,-0.333 0.86,-0.594 1.427,-0.783c0.566,-0.189 1.212,-0.283 1.938,-0.283c0.659,0 1.247,0.07 1.765,0.211c0.519,0.14 0.972,0.346 1.361,0.616c0.388,0.27 0.72,0.607 0.994,1.011c0.274,0.403 0.496,0.864 0.666,1.382l-1.199,0.555c-0.141,-0.429 -0.321,-0.821 -0.539,-1.177c-0.218,-0.355 -0.478,-0.659 -0.777,-0.91c-0.3,-0.252 -0.648,-0.446 -1.044,-0.583c-0.396,-0.137 -0.842,-0.206 -1.338,-0.206c-0.437,0 -0.82,0.061 -1.15,0.183c-0.329,0.123 -0.603,0.284 -0.822,0.483c-0.218,0.2 -0.381,0.426 -0.488,0.678c-0.108,0.252 -0.161,0.503 -0.161,0.755c0,0.37 0.113,0.707 0.338,1.011c0.226,0.303 0.522,0.59 0.889,0.86c0.366,0.27 0.787,0.531 1.26,0.783c0.474,0.252 0.955,0.507 1.444,0.766c0.489,0.26 0.97,0.53 1.444,0.811c0.473,0.281 0.894,0.589 1.26,0.922c0.367,0.333 0.663,0.698 0.888,1.094c0.226,0.396 0.339,0.838 0.339,1.327c0,0.548 -0.105,1.064 -0.316,1.549c-0.211,0.485 -0.526,0.909 -0.944,1.271c-0.419,0.363 -0.939,0.65 -1.561,0.861c-0.621,0.211 -1.347,0.317 -2.176,0.317c-0.666,0 -1.262,-0.074 -1.788,-0.223c-0.526,-0.148 -0.99,-0.362 -1.394,-0.644c-0.403,-0.281 -0.749,-0.623 -1.038,-1.027c-0.289,-0.403 -0.526,-0.864 -0.711,-1.382l1.266,-0.511c0.141,0.451 0.335,0.857 0.583,1.216c0.248,0.359 0.537,0.662 0.866,0.91c0.33,0.248 0.696,0.439 1.1,0.572c0.403,0.134 0.831,0.2 1.282,0.2Z" style="fill:#1a1a1a;fill-rule:nonzero;"/>
                <path id="t" d="M117.801,161.332l0,0.899l-5.042,0l0,13.026l-2.343,0l0,-13.026l-5.042,0l0,-0.899l12.427,0Z" style="fill:#1a1a1a;fill-rule:nonzero;"/><path id="u" d="M131.071,161.332l2.343,0l0,9.039c0,0.592 0.102,1.15 0.306,1.671c0.203,0.522 0.494,0.98 0.872,1.372c0.377,0.392 0.833,0.703 1.366,0.933c0.533,0.229 1.129,0.344 1.787,0.344c0.667,0 1.266,-0.115 1.8,-0.344c0.533,-0.23 0.986,-0.541 1.36,-0.933c0.374,-0.392 0.661,-0.85 0.861,-1.372c0.199,-0.521 0.299,-1.079 0.299,-1.671l0,-9.039l1.033,0l0,9.039c0,0.711 -0.115,1.383 -0.344,2.016c-0.23,0.633 -0.592,1.186 -1.088,1.66c-0.496,0.474 -1.129,0.85 -1.899,1.127c-0.77,0.278 -1.692,0.417 -2.766,0.417c-0.962,0 -1.813,-0.139 -2.554,-0.417c-0.74,-0.277 -1.36,-0.655 -1.86,-1.133c-0.5,-0.477 -0.877,-1.036 -1.133,-1.676c-0.255,-0.641 -0.383,-1.324 -0.383,-2.049l0,-8.984Z" style="fill:#1a1a1a;fill-rule:nonzero;"/><path id="d" d="M157.713,161.332l4.63,0c1.437,0 2.667,0.135 3.693,0.405c1.025,0.27 1.882,0.698 2.571,1.283c0.792,0.666 1.386,1.432 1.782,2.298c0.396,0.867 0.594,1.818 0.594,2.854c0,0.978 -0.178,1.897 -0.533,2.76c-0.355,0.862 -0.875,1.614 -1.56,2.254c-0.685,0.641 -1.529,1.146 -2.532,1.516c-1.003,0.37 -2.153,0.555 -3.448,0.555l-5.197,0l0,-13.925Zm2.343,12.904l2.476,0c0.792,0 1.534,-0.13 2.227,-0.389c0.692,-0.259 1.295,-0.644 1.81,-1.155c0.514,-0.511 0.92,-1.14 1.216,-1.888c0.296,-0.747 0.444,-1.61 0.444,-2.587c0,-0.852 -0.141,-1.636 -0.422,-2.355c-0.281,-0.718 -0.674,-1.336 -1.177,-1.854c-0.504,-0.518 -1.101,-0.922 -1.794,-1.211c-0.692,-0.288 -1.452,-0.433 -2.282,-0.433l-2.498,0l0,11.872Z" style="fill:#1a1a1a;fill-rule:nonzero;"/><rect id="i" x="185.242" y="161.332" width="2.343" height="13.926" style="fill:#1a1a1a;fill-rule:nonzero;"/><path id="o" d="M209.54,175.591c-0.718,0 -1.407,-0.089 -2.065,-0.267c-0.659,-0.178 -1.274,-0.426 -1.844,-0.744c-0.57,-0.318 -1.088,-0.703 -1.555,-1.155c-0.466,-0.452 -0.864,-0.949 -1.193,-1.494c-0.33,-0.544 -0.583,-1.13 -0.761,-1.76c-0.178,-0.629 -0.267,-1.281 -0.267,-1.954c0,-1 0.198,-1.936 0.595,-2.81c0.396,-0.873 0.938,-1.636 1.626,-2.287c0.689,-0.652 1.501,-1.165 2.438,-1.539c0.937,-0.373 1.945,-0.56 3.026,-0.56c0.718,0 1.407,0.085 2.066,0.255c0.659,0.17 1.271,0.411 1.838,0.722c0.566,0.311 1.082,0.685 1.549,1.122c0.466,0.436 0.864,0.921 1.194,1.454c0.329,0.533 0.583,1.107 0.76,1.722c0.178,0.614 0.267,1.254 0.267,1.921c0,0.673 -0.089,1.325 -0.267,1.954c-0.177,0.63 -0.431,1.216 -0.76,1.76c-0.33,0.545 -0.728,1.042 -1.194,1.494c-0.467,0.452 -0.983,0.837 -1.549,1.155c-0.567,0.318 -1.179,0.566 -1.838,0.744c-0.659,0.178 -1.348,0.267 -2.066,0.267Zm0,-0.7c0.792,0 1.494,-0.167 2.105,-0.5c0.61,-0.333 1.125,-0.797 1.543,-1.393c0.418,-0.596 0.735,-1.302 0.95,-2.116c0.214,-0.814 0.322,-1.703 0.322,-2.665c0,-0.955 -0.108,-1.831 -0.322,-2.627c-0.215,-0.795 -0.532,-1.482 -0.95,-2.06c-0.418,-0.577 -0.933,-1.025 -1.543,-1.343c-0.611,-0.319 -1.313,-0.478 -2.105,-0.478c-0.814,0 -1.529,0.159 -2.143,0.478c-0.615,0.318 -1.129,0.766 -1.544,1.343c-0.414,0.578 -0.727,1.265 -0.938,2.06c-0.211,0.796 -0.317,1.672 -0.317,2.627c0,0.962 0.106,1.851 0.317,2.665c0.211,0.814 0.524,1.52 0.938,2.116c0.415,0.596 0.929,1.06 1.544,1.393c0.614,0.333 1.329,0.5 2.143,0.5Z" style="fill:#1a1a1a;fill-rule:nonzero;"/></g>
            <g id="Crowtrees"><path id="c" d="M45.782,138.168c0,1.955 0.293,3.706 0.877,5.253c0.585,1.547 1.392,2.858 2.421,3.931c1.029,1.074 2.244,1.895 3.643,2.466c1.399,0.57 2.92,0.855 4.564,0.855c0.977,0 1.921,-0.189 2.832,-0.567c0.91,-0.377 1.754,-0.873 2.532,-1.488c0.777,-0.614 1.473,-1.303 2.088,-2.065c0.614,-0.763 1.121,-1.537 1.521,-2.321l1.954,1.266c-0.577,0.932 -1.254,1.832 -2.032,2.698c-0.777,0.866 -1.68,1.629 -2.709,2.288c-1.03,0.659 -2.188,1.188 -3.476,1.588c-1.289,0.4 -2.732,0.6 -4.331,0.6c-2.31,0 -4.409,-0.385 -6.297,-1.155c-1.888,-0.77 -3.505,-1.818 -4.853,-3.143c-1.347,-1.325 -2.388,-2.865 -3.12,-4.62c-0.733,-1.755 -1.1,-3.616 -1.1,-5.586c0,-1.303 0.17,-2.572 0.511,-3.809c0.341,-1.236 0.829,-2.395 1.466,-3.476c0.637,-1.081 1.41,-2.073 2.321,-2.976c0.91,-0.903 1.943,-1.677 3.098,-2.321c1.155,-0.644 2.421,-1.147 3.798,-1.51c1.377,-0.363 2.843,-0.544 4.398,-0.544c1.48,0 2.846,0.196 4.098,0.588c1.251,0.393 2.391,0.922 3.42,1.588c1.029,0.667 1.943,1.433 2.743,2.299c0.799,0.866 1.488,1.766 2.065,2.699l-2.021,1.354c-1.169,-2.265 -2.472,-3.92 -3.909,-4.964c-1.436,-1.043 -3.094,-1.565 -4.975,-1.565c-1.599,0 -3.102,0.292 -4.508,0.877c-1.407,0.585 -2.629,1.421 -3.665,2.51c-1.037,1.088 -1.855,2.413 -2.454,3.975c-0.6,1.562 -0.9,3.321 -0.9,5.275Z" style="fill:#1a1a1a;fill-rule:nonzero;"/><path id="r" d="M75.264,130.528l4.242,0l0,4.064c0.415,-0.607 0.863,-1.18 1.344,-1.721c0.481,-0.54 0.981,-1.018 1.499,-1.432c0.518,-0.415 1.055,-0.741 1.61,-0.978c0.556,-0.237 1.122,-0.355 1.699,-0.355c0.459,0 0.889,0.07 1.289,0.211c0.399,0.141 0.751,0.329 1.055,0.566c0.303,0.237 0.54,0.511 0.71,0.822c0.171,0.311 0.256,0.637 0.256,0.977c0,0.696 -0.215,1.218 -0.644,1.566c-0.43,0.348 -1.037,0.522 -1.822,0.522c-0.473,0 -0.855,-0.052 -1.143,-0.155c-0.289,-0.104 -0.548,-0.215 -0.778,-0.334c-0.229,-0.118 -0.463,-0.229 -0.699,-0.333c-0.237,-0.103 -0.541,-0.155 -0.911,-0.155c-0.281,0 -0.563,0.085 -0.844,0.255c-0.281,0.171 -0.566,0.404 -0.855,0.7c-0.289,0.296 -0.581,0.648 -0.877,1.055c-0.297,0.407 -0.593,0.848 -0.889,1.321l0,14.881l-4.242,0l0,-21.477Z" style="fill:#1a1a1a;fill-rule:nonzero;"/><path id="o1" serif:id="o" d="M104.515,152.472c-1.644,0 -3.158,-0.289 -4.542,-0.867c-1.385,-0.577 -2.584,-1.358 -3.598,-2.343c-1.014,-0.984 -1.803,-2.139 -2.366,-3.465c-0.562,-1.325 -0.844,-2.743 -0.844,-4.253c0,-1.584 0.282,-3.072 0.844,-4.464c0.563,-1.392 1.352,-2.602 2.366,-3.631c1.014,-1.03 2.213,-1.844 3.598,-2.444c1.384,-0.599 2.898,-0.899 4.542,-0.899c1.629,0 3.135,0.274 4.52,0.822c1.384,0.548 2.58,1.295 3.587,2.243c1.006,0.948 1.795,2.065 2.365,3.354c0.57,1.288 0.855,2.665 0.855,4.131c0,1.629 -0.285,3.157 -0.855,4.586c-0.57,1.429 -1.359,2.68 -2.365,3.754c-1.007,1.073 -2.203,1.921 -3.587,2.543c-1.385,0.622 -2.891,0.933 -4.52,0.933Zm0.799,-1.577c0.844,0 1.614,-0.215 2.31,-0.644c0.696,-0.43 1.3,-1.011 1.81,-1.744c0.511,-0.733 0.907,-1.584 1.189,-2.554c0.281,-0.97 0.422,-1.995 0.422,-3.076c0,-1.555 -0.134,-3.01 -0.4,-4.365c-0.267,-1.354 -0.7,-2.539 -1.299,-3.553c-0.6,-1.014 -1.381,-1.81 -2.344,-2.388c-0.962,-0.577 -2.139,-0.866 -3.531,-0.866c-0.711,0 -1.399,0.207 -2.066,0.622c-0.666,0.415 -1.254,0.981 -1.765,1.699c-0.511,0.718 -0.922,1.555 -1.233,2.51c-0.311,0.955 -0.466,1.973 -0.466,3.054c0,1.569 0.166,3.039 0.499,4.408c0.334,1.37 0.815,2.566 1.444,3.587c0.629,1.022 1.399,1.829 2.31,2.421c0.911,0.593 1.951,0.889 3.12,0.889Z" style="fill:#1a1a1a;fill-rule:nonzero;"/><path id="w" d="M124.297,130.528l6.796,15.68l6.752,-15.68l6.774,15.68l6.019,-15.68l2.044,0l-8.774,21.722l-1.443,0l-5.997,-14.06l-6.041,14.06l-1.333,0l-9.395,-21.722l4.598,0Z" style="fill:#1a1a1a;fill-rule:nonzero;"/><path id="t1" serif:id="t" d="M168.993,149.273c-0.563,0.978 -1.318,1.755 -2.266,2.332c-0.947,0.578 -2.117,0.867 -3.509,0.867c-0.711,0 -1.333,-0.123 -1.866,-0.367c-0.533,-0.244 -0.969,-0.585 -1.31,-1.022c-0.341,-0.436 -0.596,-0.962 -0.766,-1.576c-0.171,-0.615 -0.256,-1.292 -0.256,-2.033l0,-15.147l-3.709,0l0,-1.044c1.2,0 2.184,-0.218 2.954,-0.655c0.77,-0.437 1.403,-1.022 1.899,-1.755c0.496,-0.733 0.885,-1.588 1.166,-2.565c0.282,-0.977 0.526,-2.014 0.733,-3.109l1.222,0l0,7.329l4.819,0l0,1.799l-4.819,0l0,15.147c0,0.311 0.059,0.607 0.177,0.889c0.119,0.281 0.282,0.525 0.489,0.733c0.207,0.207 0.452,0.37 0.733,0.488c0.281,0.119 0.585,0.178 0.911,0.178c0.473,0 0.91,-0.118 1.31,-0.355c0.4,-0.237 0.748,-0.526 1.044,-0.867l1.044,0.733Z" style="fill:#1a1a1a;fill-rule:nonzero;"/><path id="r1" serif:id="r" d="M173.843,130.528l4.243,0l0,4.064c0.414,-0.607 0.862,-1.18 1.343,-1.721c0.482,-0.54 0.981,-1.018 1.5,-1.432c0.518,-0.415 1.055,-0.741 1.61,-0.978c0.555,-0.237 1.121,-0.355 1.699,-0.355c0.459,0 0.888,0.07 1.288,0.211c0.4,0.141 0.751,0.329 1.055,0.566c0.304,0.237 0.54,0.511 0.711,0.822c0.17,0.311 0.255,0.637 0.255,0.977c0,0.696 -0.215,1.218 -0.644,1.566c-0.429,0.348 -1.036,0.522 -1.821,0.522c-0.474,0 -0.855,-0.052 -1.144,-0.155c-0.289,-0.104 -0.548,-0.215 -0.777,-0.334c-0.23,-0.118 -0.463,-0.229 -0.7,-0.333c-0.237,-0.103 -0.54,-0.155 -0.911,-0.155c-0.281,0 -0.562,0.085 -0.844,0.255c-0.281,0.171 -0.566,0.404 -0.855,0.7c-0.288,0.296 -0.581,0.648 -0.877,1.055c-0.296,0.407 -0.592,0.848 -0.888,1.321l0,14.881l-4.243,0l0,-21.477Z" style="fill:#1a1a1a;fill-rule:nonzero;"/><path id="e" d="M202.25,152.472c-1.451,0 -2.813,-0.274 -4.086,-0.822c-1.274,-0.548 -2.388,-1.292 -3.343,-2.232c-0.955,-0.941 -1.71,-2.04 -2.265,-3.298c-0.556,-1.259 -0.833,-2.607 -0.833,-4.043c0,-1.732 0.251,-3.328 0.755,-4.786c0.503,-1.459 1.218,-2.721 2.143,-3.787c0.926,-1.066 2.036,-1.899 3.332,-2.499c1.295,-0.599 2.743,-0.899 4.342,-0.899c1.406,0 2.695,0.248 3.864,0.744c1.17,0.496 2.177,1.159 3.021,1.988c0.844,0.829 1.499,1.788 1.966,2.876c0.466,1.088 0.699,2.232 0.699,3.431l-16.013,0c0,1.452 0.185,2.788 0.555,4.009c0.37,1.222 0.892,2.284 1.566,3.188c0.673,0.903 1.473,1.606 2.398,2.11c0.926,0.503 1.944,0.755 3.054,0.755c0.933,0 1.825,-0.148 2.677,-0.444c0.851,-0.297 1.621,-0.693 2.309,-1.189c0.689,-0.496 1.278,-1.058 1.766,-1.688c0.489,-0.629 0.837,-1.277 1.044,-1.943l1.222,0.555c-0.311,1.096 -0.807,2.129 -1.488,3.098c-0.682,0.97 -1.481,1.818 -2.399,2.544c-0.918,0.725 -1.918,1.295 -2.999,1.71c-1.08,0.414 -2.176,0.622 -3.287,0.622Zm4.265,-15.037c0,-0.814 -0.145,-1.573 -0.433,-2.276c-0.289,-0.704 -0.685,-1.311 -1.189,-1.821c-0.503,-0.511 -1.092,-0.911 -1.765,-1.2c-0.674,-0.289 -1.396,-0.433 -2.166,-0.433c-0.651,0 -1.27,0.144 -1.854,0.433c-0.585,0.289 -1.107,0.689 -1.566,1.2c-0.459,0.51 -0.84,1.114 -1.144,1.81c-0.304,0.696 -0.485,1.451 -0.544,2.265l10.661,0.022Z" style="fill:#1a1a1a;fill-rule:nonzero;"/><path id="e1" serif:id="e" d="M228.201,152.472c-1.451,0 -2.813,-0.274 -4.087,-0.822c-1.273,-0.548 -2.387,-1.292 -3.343,-2.232c-0.955,-0.941 -1.71,-2.04 -2.265,-3.298c-0.555,-1.259 -0.833,-2.607 -0.833,-4.043c0,-1.732 0.252,-3.328 0.755,-4.786c0.504,-1.459 1.218,-2.721 2.144,-3.787c0.925,-1.066 2.036,-1.899 3.331,-2.499c1.296,-0.599 2.743,-0.899 4.342,-0.899c1.407,0 2.695,0.248 3.865,0.744c1.17,0.496 2.176,1.159 3.02,1.988c0.844,0.829 1.5,1.788 1.966,2.876c0.466,1.088 0.7,2.232 0.7,3.431l-16.014,0c0,1.452 0.185,2.788 0.555,4.009c0.37,1.222 0.892,2.284 1.566,3.188c0.674,0.903 1.473,1.606 2.399,2.11c0.925,0.503 1.943,0.755 3.054,0.755c0.933,0 1.825,-0.148 2.676,-0.444c0.851,-0.297 1.621,-0.693 2.31,-1.189c0.688,-0.496 1.277,-1.058 1.766,-1.688c0.488,-0.629 0.836,-1.277 1.044,-1.943l1.221,0.555c-0.311,1.096 -0.807,2.129 -1.488,3.098c-0.681,0.97 -1.481,1.818 -2.399,2.544c-0.918,0.725 -1.917,1.295 -2.998,1.71c-1.081,0.414 -2.177,0.622 -3.287,0.622Zm4.264,-15.037c0,-0.814 -0.144,-1.573 -0.433,-2.276c-0.289,-0.704 -0.685,-1.311 -1.188,-1.821c-0.504,-0.511 -1.092,-0.911 -1.766,-1.2c-0.674,-0.289 -1.395,-0.433 -2.165,-0.433c-0.652,0 -1.27,0.144 -1.855,0.433c-0.585,0.289 -1.107,0.689 -1.566,1.2c-0.459,0.51 -0.84,1.114 -1.144,1.81c-0.303,0.696 -0.485,1.451 -0.544,2.265l10.661,0.022Z" style="fill:#1a1a1a;fill-rule:nonzero;"/>
                <path id="S" d="M251.486,150.984c0.578,0 1.114,-0.089 1.61,-0.267c0.496,-0.178 0.922,-0.415 1.277,-0.711c0.356,-0.296 0.633,-0.636 0.833,-1.021c0.2,-0.385 0.3,-0.778 0.3,-1.178c0,-0.666 -0.163,-1.24 -0.489,-1.721c-0.325,-0.481 -0.758,-0.918 -1.299,-1.31c-0.54,-0.393 -1.155,-0.752 -1.843,-1.077c-0.689,-0.326 -1.392,-0.656 -2.11,-0.989c-0.718,-0.333 -1.422,-0.696 -2.11,-1.088c-0.689,-0.392 -1.303,-0.844 -1.844,-1.355c-0.54,-0.511 -0.973,-1.103 -1.299,-1.777c-0.326,-0.673 -0.489,-1.469 -0.489,-2.387c0,-0.859 0.182,-1.655 0.545,-2.388c0.362,-0.733 0.869,-1.366 1.521,-1.899c0.651,-0.533 1.425,-0.951 2.321,-1.255c0.896,-0.303 1.877,-0.455 2.943,-0.455c0.711,0 1.377,0.048 1.999,0.144c0.622,0.097 1.229,0.289 1.821,0.578c0.592,0.288 1.185,0.692 1.777,1.21c0.592,0.518 1.214,1.2 1.865,2.044l-1.576,1.399c-0.815,-1.333 -1.722,-2.325 -2.721,-2.976c-1,-0.652 -2.077,-0.978 -3.232,-0.978c-0.607,0 -1.162,0.074 -1.666,0.222c-0.503,0.149 -0.932,0.352 -1.288,0.611c-0.355,0.259 -0.633,0.563 -0.833,0.911c-0.2,0.348 -0.3,0.714 -0.3,1.099c0,0.652 0.178,1.214 0.534,1.688c0.355,0.474 0.829,0.903 1.421,1.288c0.592,0.385 1.262,0.741 2.01,1.067c0.748,0.325 1.51,0.658 2.288,0.999c0.777,0.341 1.54,0.707 2.287,1.099c0.748,0.393 1.418,0.844 2.01,1.355c0.593,0.511 1.066,1.1 1.422,1.766c0.355,0.666 0.533,1.451 0.533,2.354c0,0.918 -0.17,1.77 -0.511,2.554c-0.341,0.785 -0.851,1.47 -1.532,2.055c-0.682,0.585 -1.537,1.044 -2.566,1.377c-1.029,0.333 -2.232,0.5 -3.609,0.5c-0.622,0 -1.262,-0.048 -1.921,-0.145c-0.659,-0.096 -1.325,-0.288 -1.999,-0.577c-0.674,-0.289 -1.347,-0.692 -2.021,-1.211c-0.674,-0.518 -1.329,-1.199 -1.966,-2.043l1.733,-1.577c0.518,0.726 1.018,1.347 1.499,1.866c0.481,0.518 0.966,0.94 1.455,1.266c0.488,0.325 0.995,0.562 1.521,0.71c0.526,0.149 1.092,0.223 1.699,0.223Z" style="fill:#1a1a1a;fill-rule:nonzero;"/></g></g></g></svg>