<?xml version="1.0" encoding="UTF-8" standalone="no"?>
<!DOCTYPE svg PUBLIC "-//W3C//DTD SVG 1.1//EN" "http://www.w3.org/Graphics/SVG/1.1/DTD/svg11.dtd">
<svg width="100%" height="100%" viewBox="0 0 90 90" version="1.1" xmlns="http://www.w3.org/2000/svg" xmlns:xlink="http://www.w3.org/1999/xlink" xml:space="preserve" xmlns:serif="http://www.serif.com/" style="fill-rule:evenodd;clip-rule:evenodd;stroke-linejoin:round;stroke-miterlimit:2;">
    <g transform="matrix(1.25006,0,0,1.25805,6.20715,5.41455)">
        <path d="M61.293,16.008C61.293,7.476 54.513,0.55 46.163,0.55L15.903,0.55C7.552,0.55 0.773,7.476 0.773,16.008L0.773,46.923C0.773,55.455 7.552,62.381 15.903,62.381L46.163,62.381C54.513,62.381 61.293,55.455 61.293,46.923L61.293,16.008Z" style="fill:rgb(235,235,235);fill-opacity:0.5;"/>
    </g>
    <g transform="matrix(1.48711,0,0,1.45558,-1.14915,-0.800673)">
        <path d="M61.293,16.008L61.293,46.923C61.293,55.455 54.513,62.381 46.163,62.381L15.903,62.381C7.552,62.381 0.773,55.455 0.773,46.923L0.773,16.008C0.773,7.476 7.552,0.55 15.903,0.55L46.163,0.55C54.513,0.55 61.293,7.476 61.293,16.008ZM51.837,16.008C51.837,12.809 49.294,10.211 46.163,10.211L15.903,10.211C12.771,10.211 10.229,12.809 10.229,16.008L10.229,46.923C10.229,50.123 12.771,52.72 15.903,52.72L46.163,52.72C49.294,52.72 51.837,50.123 51.837,46.923L51.837,16.008Z"/>
    </g>
</svg>
