<?xml version="1.0" encoding="UTF-8" standalone="no"?><!DOCTYPE svg PUBLIC "-//W3C//DTD SVG 1.1//EN" "http://www.w3.org/Graphics/SVG/1.1/DTD/svg11.dtd">
<svg width="100%" height="100%" viewBox="0 0 300 300" version="1.1" xmlns="http://www.w3.org/2000/svg" xmlns:xlink="http://www.w3.org/1999/xlink" xml:space="preserve" xmlns:serif="http://www.serif.com/" style="fill-rule:evenodd;clip-rule:evenodd;stroke-linecap:round;stroke-linejoin:round;stroke-miterlimit:1.41421;">
    <path id="Cog" d="M159.671,50.469c-6.432,-0.625 -12.91,-0.625 -19.342,0l-3.186,15.509c-6.166,0.943 -12.208,2.563 -18.019,4.828l-10.514,-11.838c-5.883,2.675 -11.493,5.914 -16.751,9.671l4.995,15.024c-4.867,3.9 -9.291,8.324 -13.191,13.191l-15.024,-4.995c-3.757,5.258 -6.996,10.868 -9.671,16.751l11.838,10.514c-2.265,5.811 -3.885,11.853 -4.828,18.019l-15.509,3.186c-0.625,6.432 -0.625,12.91 0,19.342l15.509,3.186c0.943,6.166 2.563,12.208 4.828,18.019l-11.838,10.514c2.675,5.883 5.914,11.493 9.671,16.751l15.024,-4.995c3.9,4.867 8.324,9.291 13.191,13.191l-4.995,15.024c5.258,3.757 10.868,6.996 16.751,9.671l10.514,-11.838c5.811,2.265 11.853,3.885 18.019,4.828l3.186,15.509c6.432,0.625 12.91,0.625 19.342,0l3.186,-15.509c6.166,-0.943 12.208,-2.563 18.019,-4.828l10.514,11.838c5.883,-2.675 11.493,-5.914 16.751,-9.671l-4.995,-15.024c4.867,-3.9 9.291,-8.324 13.191,-13.191l15.024,4.995c3.757,-5.258 6.996,-10.868 9.671,-16.751l-11.838,-10.514c2.265,-5.811 3.885,-11.853 4.828,-18.019l15.509,-3.186c0.625,-6.432 0.625,-12.91 0,-19.342l-15.509,-3.186c-0.943,-6.166 -2.563,-12.208 -4.828,-18.019l11.838,-10.514c-2.675,-5.883 -5.914,-11.493 -9.671,-16.751l-15.024,4.995c-3.9,-4.867 -8.324,-9.291 -13.191,-13.191l4.995,-15.024c-5.258,-3.757 -10.868,-6.996 -16.751,-9.671l-10.514,11.838c-5.811,-2.265 -11.853,-3.885 -18.019,-4.828l-3.186,-15.509Zm-9.671,28.556c39.172,0 70.975,31.803 70.975,70.975c0,39.172 -31.803,70.975 -70.975,70.975c-39.172,0 -70.975,-31.803 -70.975,-70.975c0,-39.172 31.803,-70.975 70.975,-70.975Z" style="fill:#ffc200;">
        <animateTransform 
                          attributeName="transform"
                          attributeType="XML"
                          type="rotate"
                          from="0 150 150"
                          to="360 150 150"
                          dur="2s"
                          repeatCount="indefinite">
        </animateTransform>
    
    </path>
    
    
    
    <g id="crowtrees-studio" serif:id="crowtrees studio">
    <path d="M290.657,150c0,-17.953 -14.576,-32.529 -32.529,-32.529l-216.256,0c-17.953,0 -32.529,14.576 -32.529,32.529c0,17.953 14.576,32.529 32.529,32.529l216.256,0c17.953,0 32.529,-14.576 32.529,-32.529Z" style="fill:none;stroke:#000;stroke-width:6px;"/><path d="M290.657,150c0,-17.953 -14.576,-32.529 -32.529,-32.529l-216.256,0c-17.953,0 -32.529,14.576 -32.529,32.529c0,17.953 14.576,32.529 32.529,32.529l216.256,0c17.953,0 32.529,-14.576 32.529,-32.529Z" style="fill:#fff;"/>
    <g id="crowtrees.studio">
    <path d="M24.903,157.758l250.194,0" style="fill:none;fill-rule:nonzero;stroke:#808080;stroke-width:2px;stroke-linecap:butt;stroke-linejoin:miter;stroke-miterlimit:10;"/>
        <g>
    <path d="M79.31,178.195c0.396,0 0.784,-0.055 1.163,-0.164c0.379,-0.11 0.718,-0.27 1.017,-0.481c0.3,-0.21 0.542,-0.469 0.727,-0.777c0.185,-0.307 0.278,-0.663 0.278,-1.068c0,-0.48 -0.124,-0.91 -0.373,-1.289c-0.248,-0.379 -0.577,-0.726 -0.985,-1.042c-0.409,-0.316 -0.875,-0.613 -1.397,-0.891c-0.522,-0.278 -1.055,-0.556 -1.599,-0.834c-0.543,-0.278 -1.074,-0.571 -1.592,-0.879c-0.518,-0.307 -0.981,-0.648 -1.39,-1.023c-0.409,-0.375 -0.737,-0.797 -0.986,-1.264c-0.248,-0.468 -0.373,-1.005 -0.373,-1.611c0,-0.607 0.114,-1.169 0.342,-1.688c0.227,-0.518 0.56,-0.966 0.998,-1.346c0.438,-0.379 0.979,-0.676 1.624,-0.89c0.644,-0.215 1.38,-0.323 2.205,-0.323c0.75,0 1.42,0.08 2.01,0.24c0.589,0.16 1.105,0.394 1.548,0.702c0.442,0.307 0.819,0.691 1.131,1.15c0.312,0.459 0.564,0.983 0.758,1.573l-1.365,0.632c-0.16,-0.489 -0.364,-0.935 -0.613,-1.34c-0.248,-0.404 -0.543,-0.749 -0.884,-1.036c-0.342,-0.286 -0.738,-0.507 -1.188,-0.663c-0.451,-0.156 -0.959,-0.234 -1.523,-0.234c-0.497,0 -0.933,0.069 -1.308,0.208c-0.375,0.139 -0.687,0.323 -0.935,0.55c-0.249,0.228 -0.434,0.485 -0.556,0.771c-0.123,0.287 -0.184,0.573 -0.184,0.859c0,0.422 0.129,0.805 0.386,1.15c0.257,0.346 0.594,0.672 1.011,0.98c0.417,0.307 0.895,0.604 1.434,0.891c0.539,0.286 1.087,0.577 1.643,0.872c0.556,0.295 1.104,0.602 1.643,0.922c0.539,0.321 1.017,0.67 1.434,1.049c0.417,0.38 0.754,0.794 1.011,1.245c0.257,0.451 0.386,0.954 0.386,1.51c0,0.624 -0.12,1.212 -0.36,1.763c-0.24,0.552 -0.598,1.035 -1.075,1.447c-0.476,0.413 -1.067,0.74 -1.775,0.98c-0.708,0.24 -1.534,0.36 -2.477,0.36c-0.758,0 -1.437,-0.084 -2.035,-0.253c-0.598,-0.168 -1.127,-0.413 -1.586,-0.733c-0.459,-0.32 -0.853,-0.71 -1.182,-1.169c-0.328,-0.459 -0.598,-0.983 -0.808,-1.573l1.44,-0.581c0.16,0.513 0.382,0.975 0.664,1.383c0.282,0.409 0.611,0.754 0.986,1.037c0.375,0.282 0.792,0.499 1.251,0.651c0.459,0.151 0.945,0.227 1.459,0.227Z" style="fill:#1a1a1a;fill-rule:nonzero;"/>
            <path d="M113.357,162.979l0,1.024l-5.738,0l0,14.824l-2.666,0l0,-14.824l-5.738,0l0,-1.024l14.142,0Z" style="fill:#1a1a1a;fill-rule:nonzero;"/>
            <path d="M128.459,162.979l2.666,0l0,10.287c0,0.674 0.116,1.308 0.348,1.902c0.232,0.594 0.562,1.114 0.992,1.561c0.43,0.447 0.948,0.8 1.554,1.062c0.607,0.261 1.285,0.391 2.035,0.391c0.758,0 1.441,-0.13 2.048,-0.391c0.606,-0.262 1.122,-0.615 1.548,-1.062c0.425,-0.447 0.752,-0.967 0.979,-1.561c0.228,-0.594 0.341,-1.228 0.341,-1.902l0,-10.287l1.176,0l0,10.287c0,0.809 -0.131,1.574 -0.392,2.294c-0.261,0.72 -0.674,1.35 -1.239,1.889c-0.564,0.54 -1.285,0.967 -2.161,1.283c-0.876,0.316 -1.925,0.474 -3.147,0.474c-1.095,0 -2.064,-0.158 -2.906,-0.474c-0.843,-0.316 -1.548,-0.746 -2.117,-1.289c-0.569,-0.543 -0.998,-1.179 -1.289,-1.908c-0.291,-0.729 -0.436,-1.506 -0.436,-2.332l0,-10.224Z" style="fill:#1a1a1a;fill-rule:nonzero;"/>
            <path d="M158.777,162.979l5.27,0c1.634,0 3.035,0.154 4.202,0.461c1.167,0.308 2.142,0.794 2.926,1.46c0.901,0.758 1.577,1.63 2.028,2.616c0.451,0.986 0.676,2.068 0.676,3.248c0,1.112 -0.202,2.159 -0.606,3.14c-0.405,0.982 -0.997,1.837 -1.776,2.566c-0.779,0.729 -1.74,1.304 -2.882,1.725c-1.141,0.421 -2.449,0.632 -3.924,0.632l-5.914,0l0,-15.848Zm2.667,14.685l2.818,0c0.901,0 1.746,-0.147 2.534,-0.442c0.787,-0.295 1.474,-0.733 2.06,-1.314c0.585,-0.582 1.046,-1.298 1.383,-2.149c0.337,-0.851 0.506,-1.832 0.506,-2.944c0,-0.969 -0.16,-1.862 -0.48,-2.68c-0.32,-0.817 -0.767,-1.52 -1.34,-2.11c-0.573,-0.59 -1.253,-1.049 -2.041,-1.378c-0.788,-0.328 -1.653,-0.493 -2.597,-0.493l-2.843,0l0,13.51Z" style="fill:#1a1a1a;fill-rule:nonzero;"/>
            <rect x="190.106" y="162.979" width="2.667" height="15.848" style="fill:#1a1a1a;fill-rule:nonzero;"/>
            <path d="M217.758,179.206c-0.818,0 -1.601,-0.101 -2.351,-0.303c-0.75,-0.202 -1.449,-0.485 -2.098,-0.847c-0.649,-0.362 -1.238,-0.8 -1.769,-1.314c-0.531,-0.514 -0.984,-1.081 -1.359,-1.7c-0.375,-0.619 -0.663,-1.287 -0.865,-2.003c-0.203,-0.716 -0.304,-1.458 -0.304,-2.224c0,-1.138 0.226,-2.204 0.676,-3.198c0.451,-0.994 1.068,-1.862 1.852,-2.603c0.783,-0.742 1.708,-1.325 2.774,-1.751c1.066,-0.425 2.214,-0.638 3.444,-0.638c0.817,0 1.6,0.097 2.35,0.291c0.75,0.194 1.447,0.468 2.092,0.821c0.644,0.354 1.232,0.78 1.763,1.277c0.531,0.497 0.983,1.049 1.358,1.655c0.375,0.607 0.664,1.26 0.866,1.959c0.202,0.699 0.303,1.428 0.303,2.187c0,0.766 -0.101,1.508 -0.303,2.224c-0.202,0.716 -0.491,1.384 -0.866,2.003c-0.375,0.619 -0.827,1.186 -1.358,1.7c-0.531,0.514 -1.119,0.952 -1.763,1.314c-0.645,0.362 -1.342,0.645 -2.092,0.847c-0.75,0.202 -1.533,0.303 -2.35,0.303Zm0,-0.796c0.901,0 1.699,-0.19 2.394,-0.569c0.696,-0.379 1.281,-0.908 1.757,-1.586c0.476,-0.678 0.836,-1.481 1.081,-2.407c0.244,-0.927 0.366,-1.938 0.366,-3.033c0,-1.087 -0.122,-2.084 -0.366,-2.989c-0.245,-0.906 -0.605,-1.687 -1.081,-2.345c-0.476,-0.657 -1.061,-1.167 -1.757,-1.529c-0.695,-0.362 -1.493,-0.543 -2.394,-0.543c-0.927,0 -1.74,0.181 -2.439,0.543c-0.7,0.362 -1.285,0.872 -1.757,1.529c-0.472,0.658 -0.828,1.439 -1.068,2.345c-0.24,0.905 -0.36,1.902 -0.36,2.989c0,1.095 0.12,2.106 0.36,3.033c0.24,0.926 0.596,1.729 1.068,2.407c0.472,0.678 1.057,1.207 1.757,1.586c0.699,0.379 1.512,0.569 2.439,0.569Z" style="fill:#1a1a1a;fill-rule:nonzero;"/></g>
        <g>
        <path d="M31.398,136.619c0,2.224 0.333,4.217 0.999,5.978c0.665,1.76 1.584,3.252 2.755,4.473c1.171,1.222 2.553,2.157 4.145,2.806c1.592,0.649 3.324,0.973 5.194,0.973c1.112,0 2.187,-0.215 3.223,-0.645c1.036,-0.429 1.997,-0.994 2.881,-1.693c0.885,-0.699 1.677,-1.483 2.376,-2.351c0.699,-0.867 1.277,-1.748 1.732,-2.641l2.224,1.441c-0.657,1.061 -1.428,2.085 -2.313,3.071c-0.885,0.986 -1.912,1.853 -3.084,2.603c-1.171,0.75 -2.489,1.352 -3.955,1.807c-1.466,0.455 -3.109,0.683 -4.929,0.683c-2.629,0 -5.017,-0.438 -7.166,-1.315c-2.148,-0.876 -3.989,-2.068 -5.522,-3.576c-1.534,-1.508 -2.717,-3.261 -3.552,-5.257c-0.834,-1.997 -1.251,-4.116 -1.251,-6.357c0,-1.483 0.194,-2.928 0.582,-4.335c0.387,-1.407 0.943,-2.725 1.668,-3.956c0.724,-1.23 1.605,-2.359 2.641,-3.387c1.036,-1.027 2.212,-1.908 3.526,-2.641c1.314,-0.733 2.755,-1.306 4.322,-1.719c1.567,-0.412 3.236,-0.619 5.005,-0.619c1.685,0 3.239,0.223 4.663,0.67c1.424,0.447 2.721,1.049 3.893,1.807c1.171,0.758 2.211,1.63 3.121,2.616c0.91,0.986 1.694,2.01 2.351,3.071l-2.3,1.542c-1.331,-2.578 -2.814,-4.461 -4.449,-5.649c-1.634,-1.188 -3.522,-1.782 -5.662,-1.782c-1.819,0 -3.53,0.333 -5.131,0.998c-1.6,0.666 -2.99,1.618 -4.17,2.857c-1.18,1.238 -2.111,2.746 -2.793,4.524c-0.682,1.778 -1.024,3.779 -1.024,6.003Z" style="fill:#1a1a1a;fill-rule:nonzero;"/>
            <path d="M64.949,127.924l4.828,0l0,4.625c0.472,-0.69 0.981,-1.343 1.529,-1.958c0.548,-0.615 1.116,-1.159 1.706,-1.631c0.59,-0.471 1.201,-0.842 1.833,-1.112c0.632,-0.269 1.276,-0.404 1.933,-0.404c0.523,0 1.011,0.08 1.466,0.24c0.455,0.16 0.855,0.375 1.201,0.644c0.345,0.27 0.615,0.582 0.809,0.936c0.193,0.353 0.29,0.724 0.29,1.112c0,0.792 -0.244,1.386 -0.733,1.782c-0.488,0.396 -1.179,0.594 -2.072,0.594c-0.54,0 -0.973,-0.059 -1.302,-0.177c-0.329,-0.118 -0.623,-0.245 -0.885,-0.379c-0.261,-0.135 -0.526,-0.262 -0.796,-0.38c-0.269,-0.117 -0.615,-0.176 -1.036,-0.176c-0.32,0 -0.64,0.096 -0.961,0.29c-0.32,0.194 -0.644,0.459 -0.973,0.796c-0.328,0.337 -0.661,0.738 -0.998,1.201c-0.337,0.463 -0.674,0.965 -1.011,1.504l0,16.935l-4.828,0l0,-24.442Z" style="fill:#1a1a1a;fill-rule:nonzero;"/>
            <path d="M98.237,152.896c-1.87,0 -3.593,-0.328 -5.169,-0.985c-1.575,-0.658 -2.94,-1.546 -4.094,-2.667c-1.155,-1.121 -2.052,-2.435 -2.692,-3.943c-0.64,-1.508 -0.961,-3.122 -0.961,-4.84c0,-1.803 0.321,-3.497 0.961,-5.081c0.64,-1.584 1.537,-2.961 2.692,-4.132c1.154,-1.171 2.519,-2.098 4.094,-2.781c1.576,-0.682 3.299,-1.023 5.169,-1.023c1.854,0 3.568,0.312 5.144,0.935c1.575,0.623 2.936,1.474 4.082,2.553c1.146,1.078 2.043,2.35 2.692,3.816c0.648,1.466 0.973,3.034 0.973,4.702c0,1.853 -0.325,3.593 -0.973,5.219c-0.649,1.626 -1.546,3.05 -2.692,4.272c-1.146,1.221 -2.507,2.186 -4.082,2.894c-1.576,0.707 -3.29,1.061 -5.144,1.061Zm0.91,-1.794c0.961,0 1.837,-0.245 2.629,-0.733c0.792,-0.489 1.478,-1.15 2.06,-1.984c0.581,-0.834 1.032,-1.803 1.352,-2.907c0.32,-1.104 0.48,-2.271 0.48,-3.501c0,-1.769 -0.151,-3.425 -0.455,-4.966c-0.303,-1.542 -0.796,-2.89 -1.478,-4.045c-0.683,-1.154 -1.572,-2.059 -2.667,-2.717c-1.095,-0.657 -2.435,-0.985 -4.019,-0.985c-0.809,0 -1.592,0.236 -2.35,0.707c-0.759,0.472 -1.428,1.117 -2.01,1.934c-0.581,0.817 -1.049,1.769 -1.403,2.856c-0.353,1.087 -0.53,2.245 -0.53,3.475c0,1.787 0.189,3.459 0.568,5.018c0.379,1.558 0.927,2.919 1.643,4.082c0.716,1.162 1.593,2.081 2.629,2.755c1.036,0.674 2.22,1.011 3.551,1.011Z" style="fill:#1a1a1a;fill-rule:nonzero;"/>
            <path d="M120.749,127.924l7.735,17.845l7.683,-17.845l7.71,17.845l6.849,-17.845l2.326,0l-9.984,24.72l-1.643,0l-6.825,-16l-6.875,16l-1.516,0l-10.692,-24.72l5.232,0Z" style="fill:#1a1a1a;fill-rule:nonzero;"/>
            <path d="M171.614,149.257c-0.64,1.112 -1.5,1.996 -2.578,2.654c-1.079,0.657 -2.41,0.985 -3.994,0.985c-0.808,0 -1.516,-0.139 -2.123,-0.417c-0.606,-0.278 -1.103,-0.665 -1.491,-1.162c-0.388,-0.497 -0.678,-1.096 -0.872,-1.795c-0.194,-0.699 -0.291,-1.47 -0.291,-2.313l0,-17.238l-4.221,0l0,-1.188c1.365,0 2.486,-0.248 3.362,-0.745c0.876,-0.497 1.596,-1.163 2.161,-1.997c0.564,-0.834 1.007,-1.807 1.327,-2.919c0.32,-1.112 0.598,-2.292 0.834,-3.539l1.39,0l0,8.341l5.485,0l0,2.047l-5.485,0l0,17.238c0,0.354 0.068,0.691 0.202,1.011c0.135,0.32 0.321,0.599 0.556,0.834c0.236,0.236 0.514,0.422 0.835,0.556c0.32,0.135 0.665,0.203 1.036,0.203c0.539,0 1.036,-0.135 1.491,-0.405c0.455,-0.269 0.851,-0.598 1.188,-0.985l1.188,0.834Z" style="fill:#1a1a1a;fill-rule:nonzero;"/>
            <path d="M177.134,127.924l4.828,0l0,4.625c0.472,-0.69 0.981,-1.343 1.529,-1.958c0.548,-0.615 1.116,-1.159 1.706,-1.631c0.59,-0.471 1.201,-0.842 1.833,-1.112c0.632,-0.269 1.276,-0.404 1.933,-0.404c0.523,0 1.011,0.08 1.466,0.24c0.455,0.16 0.855,0.375 1.201,0.644c0.345,0.27 0.615,0.582 0.809,0.936c0.193,0.353 0.29,0.724 0.29,1.112c0,0.792 -0.244,1.386 -0.733,1.782c-0.488,0.396 -1.179,0.594 -2.072,0.594c-0.54,0 -0.973,-0.059 -1.302,-0.177c-0.329,-0.118 -0.623,-0.245 -0.885,-0.379c-0.261,-0.135 -0.526,-0.262 -0.796,-0.38c-0.269,-0.117 -0.615,-0.176 -1.036,-0.176c-0.32,0 -0.64,0.096 -0.961,0.29c-0.32,0.194 -0.644,0.459 -0.973,0.796c-0.328,0.337 -0.661,0.738 -0.998,1.201c-0.337,0.463 -0.674,0.965 -1.011,1.504l0,16.935l-4.828,0l0,-24.442Z" style="fill:#1a1a1a;fill-rule:nonzero;"/>
            <path d="M209.462,152.896c-1.652,0 -3.202,-0.311 -4.651,-0.935c-1.449,-0.623 -2.717,-1.47 -3.804,-2.54c-1.087,-1.07 -1.946,-2.321 -2.578,-3.754c-0.632,-1.432 -0.948,-2.965 -0.948,-4.6c0,-1.971 0.287,-3.787 0.859,-5.447c0.573,-1.659 1.386,-3.096 2.44,-4.309c1.053,-1.213 2.316,-2.161 3.791,-2.844c1.474,-0.682 3.121,-1.023 4.941,-1.023c1.601,0 3.067,0.282 4.398,0.847c1.331,0.564 2.477,1.318 3.438,2.262c0.96,0.943 1.706,2.034 2.237,3.273c0.53,1.238 0.796,2.54 0.796,3.905l-18.224,0c0,1.651 0.211,3.172 0.632,4.562c0.421,1.39 1.015,2.599 1.782,3.627c0.767,1.028 1.677,1.829 2.73,2.401c1.053,0.573 2.211,0.86 3.475,0.86c1.062,0 2.077,-0.169 3.046,-0.506c0.969,-0.337 1.845,-0.787 2.628,-1.352c0.784,-0.564 1.454,-1.205 2.01,-1.921c0.556,-0.716 0.952,-1.453 1.188,-2.212l1.39,0.632c-0.354,1.247 -0.918,2.423 -1.694,3.526c-0.775,1.104 -1.685,2.069 -2.729,2.894c-1.045,0.826 -2.182,1.475 -3.412,1.947c-1.231,0.471 -2.477,0.707 -3.741,0.707Zm4.853,-17.111c0,-0.927 -0.165,-1.791 -0.493,-2.591c-0.329,-0.8 -0.78,-1.491 -1.352,-2.073c-0.573,-0.581 -1.243,-1.036 -2.01,-1.365c-0.767,-0.328 -1.588,-0.492 -2.464,-0.492c-0.742,0 -1.445,0.164 -2.111,0.492c-0.665,0.329 -1.259,0.784 -1.782,1.365c-0.522,0.582 -0.956,1.268 -1.301,2.06c-0.346,0.792 -0.552,1.652 -0.62,2.578l12.133,0.026Z" style="fill:#1a1a1a;fill-rule:nonzero;"/>
            <path d="M238.994,152.896c-1.652,0 -3.202,-0.311 -4.651,-0.935c-1.449,-0.623 -2.717,-1.47 -3.804,-2.54c-1.087,-1.07 -1.946,-2.321 -2.578,-3.754c-0.632,-1.432 -0.948,-2.965 -0.948,-4.6c0,-1.971 0.287,-3.787 0.859,-5.447c0.573,-1.659 1.386,-3.096 2.44,-4.309c1.053,-1.213 2.317,-2.161 3.791,-2.844c1.474,-0.682 3.121,-1.023 4.941,-1.023c1.601,0 3.067,0.282 4.398,0.847c1.331,0.564 2.477,1.318 3.438,2.262c0.96,0.943 1.706,2.034 2.237,3.273c0.53,1.238 0.796,2.54 0.796,3.905l-18.224,0c0,1.651 0.211,3.172 0.632,4.562c0.421,1.39 1.015,2.599 1.782,3.627c0.767,1.028 1.677,1.829 2.73,2.401c1.053,0.573 2.211,0.86 3.475,0.86c1.062,0 2.077,-0.169 3.046,-0.506c0.969,-0.337 1.845,-0.787 2.628,-1.352c0.784,-0.564 1.454,-1.205 2.01,-1.921c0.556,-0.716 0.952,-1.453 1.188,-2.212l1.39,0.632c-0.354,1.247 -0.918,2.423 -1.693,3.526c-0.776,1.104 -1.686,2.069 -2.73,2.894c-1.045,0.826 -2.182,1.475 -3.412,1.947c-1.231,0.471 -2.477,0.707 -3.741,0.707Zm4.853,-17.111c0,-0.927 -0.165,-1.791 -0.493,-2.591c-0.329,-0.8 -0.78,-1.491 -1.352,-2.073c-0.573,-0.581 -1.243,-1.036 -2.01,-1.365c-0.767,-0.328 -1.588,-0.492 -2.464,-0.492c-0.742,0 -1.445,0.164 -2.111,0.492c-0.665,0.329 -1.259,0.784 -1.782,1.365c-0.522,0.582 -0.956,1.268 -1.301,2.06c-0.346,0.792 -0.552,1.652 -0.62,2.578l12.133,0.026Z" style="fill:#1a1a1a;fill-rule:nonzero;"/>
            <path d="M265.493,151.203c0.657,0 1.268,-0.101 1.832,-0.303c0.565,-0.203 1.049,-0.472 1.454,-0.809c0.404,-0.337 0.72,-0.725 0.947,-1.163c0.228,-0.438 0.342,-0.885 0.342,-1.34c0,-0.758 -0.186,-1.411 -0.556,-1.958c-0.371,-0.548 -0.864,-1.045 -1.479,-1.492c-0.615,-0.446 -1.314,-0.855 -2.098,-1.226c-0.784,-0.37 -1.584,-0.745 -2.401,-1.124c-0.817,-0.379 -1.618,-0.792 -2.401,-1.239c-0.784,-0.446 -1.483,-0.96 -2.098,-1.542c-0.615,-0.581 -1.108,-1.255 -1.479,-2.022c-0.371,-0.766 -0.556,-1.672 -0.556,-2.717c0,-0.977 0.207,-1.883 0.619,-2.717c0.413,-0.834 0.99,-1.554 1.732,-2.161c0.741,-0.607 1.622,-1.083 2.641,-1.428c1.019,-0.346 2.136,-0.518 3.349,-0.518c0.809,0 1.567,0.055 2.275,0.164c0.708,0.11 1.398,0.329 2.072,0.657c0.674,0.329 1.348,0.788 2.023,1.378c0.674,0.59 1.381,1.365 2.123,2.325l-1.795,1.592c-0.927,-1.516 -1.959,-2.645 -3.096,-3.386c-1.138,-0.742 -2.363,-1.113 -3.678,-1.113c-0.691,0 -1.323,0.085 -1.895,0.253c-0.573,0.169 -1.062,0.4 -1.466,0.695c-0.405,0.295 -0.721,0.641 -0.948,1.037c-0.228,0.396 -0.341,0.813 -0.341,1.251c0,0.741 0.202,1.381 0.606,1.921c0.405,0.539 0.944,1.028 1.618,1.466c0.674,0.438 1.436,0.842 2.287,1.213c0.851,0.371 1.719,0.75 2.604,1.137c0.884,0.388 1.752,0.805 2.603,1.251c0.851,0.447 1.613,0.961 2.287,1.542c0.674,0.582 1.214,1.251 1.618,2.01c0.404,0.758 0.607,1.651 0.607,2.679c0,1.045 -0.194,2.013 -0.582,2.907c-0.387,0.893 -0.969,1.672 -1.744,2.338c-0.775,0.665 -1.748,1.187 -2.919,1.567c-1.171,0.379 -2.54,0.568 -4.107,0.568c-0.708,0 -1.437,-0.054 -2.187,-0.164c-0.749,-0.109 -1.508,-0.329 -2.274,-0.657c-0.767,-0.329 -1.534,-0.788 -2.301,-1.378c-0.766,-0.589 -1.512,-1.365 -2.236,-2.325l1.971,-1.795c0.59,0.826 1.159,1.534 1.706,2.124c0.548,0.589 1.1,1.07 1.656,1.44c0.556,0.371 1.133,0.641 1.731,0.809c0.598,0.169 1.243,0.253 1.934,0.253Z" style="fill:#1a1a1a;fill-rule:nonzero;"/>
        </g>
        </g>
    </g>
</svg>