{
    "accessors" : [
        {
            "bufferView" : 0, 
            "componentType" : 5123, 
            "count" : 768, 
            "max" : [
                511
            ], 
            "min" : [
                0
            ], 
            "type" : "SCALAR"
        }, 
        {
            "bufferView" : 1, 
            "componentType" : 5126, 
            "count" : 512, 
            "max" : [
                2.5606799125671387, 
                -0.044209420680999756, 
                2.5606801509857178
            ], 
            "min" : [
                -2.5606799125671387, 
                -0.7868245840072632, 
                -2.5606799125671387
            ], 
            "type" : "VEC3"
        }, 
        {
            "bufferView" : 2, 
            "componentType" : 5126, 
            "count" : 512, 
            "max" : [
                0.9249251484870911, 
                0.9990363121032715, 
                0.9249251484870911
            ], 
            "min" : [
                -0.9249251484870911, 
                -0.9990363121032715, 
                -0.9249251484870911
            ], 
            "type" : "VEC3"
        }, 
        {
            "bufferView" : 3, 
            "componentType" : 5123, 
            "count" : 1056, 
            "max" : [
                621
            ], 
            "min" : [
                0
            ], 
            "type" : "SCALAR"
        }, 
        {
            "bufferView" : 4, 
            "componentType" : 5126, 
            "count" : 622, 
            "max" : [
                2.5606799125671387, 
                0.01730060577392578, 
                2.5606801509857178
            ], 
            "min" : [
                -2.5606799125671387, 
                -1.0, 
                -2.5606799125671387
            ], 
            "type" : "VEC3"
        }, 
        {
            "bufferView" : 5, 
            "componentType" : 5126, 
            "count" : 622, 
            "max" : [
                1.0, 
                1.0, 
                1.0
            ], 
            "min" : [
                -1.0, 
                -1.0, 
                -1.0
            ], 
            "type" : "VEC3"
        }, 
        {
            "bufferView" : 6, 
            "componentType" : 5121, 
            "count" : 180, 
            "max" : [
                119
            ], 
            "min" : [
                0
            ], 
            "type" : "SCALAR"
        }, 
        {
            "bufferView" : 7, 
            "componentType" : 5126, 
            "count" : 120, 
            "max" : [
                0.5853886008262634, 
                9.079513549804688, 
                3.7430191040039062
            ], 
            "min" : [
                -0.44799676537513733, 
                1.9698047637939453, 
                2.6246418952941895
            ], 
            "type" : "VEC3"
        }, 
        {
            "bufferView" : 8, 
            "componentType" : 5126, 
            "count" : 120, 
            "max" : [
                0.9198230504989624, 
                0.9418714046478271, 
                0.9238796830177307
            ], 
            "min" : [
                -0.9198231101036072, 
                -0.9418714642524719, 
                -0.9238797426223755
            ], 
            "type" : "VEC3"
        }, 
        {
            "bufferView" : 9, 
            "componentType" : 5121, 
            "count" : 6, 
            "max" : [
                3
            ], 
            "min" : [
                0
            ], 
            "type" : "SCALAR"
        }, 
        {
            "bufferView" : 10, 
            "componentType" : 5126, 
            "count" : 4, 
            "max" : [
                0.8404789566993713, 
                1.3157830238342285, 
                0.009698480367660522
            ], 
            "min" : [
                0.8383812308311462, 
                0.8224883675575256, 
                -0.24840810894966125
            ], 
            "type" : "VEC3"
        }, 
        {
            "bufferView" : 11, 
            "componentType" : 5126, 
            "count" : 4, 
            "max" : [
                0.9999670386314392, 
                -6.857277523586447e-10, 
                -0.008127095177769661
            ], 
            "min" : [
                0.9999670386314392, 
                -6.857277523586447e-10, 
                -0.008127095177769661
            ], 
            "type" : "VEC3"
        }, 
        {
            "bufferView" : 12, 
            "componentType" : 5121, 
            "count" : 150, 
            "max" : [
                99
            ], 
            "min" : [
                0
            ], 
            "type" : "SCALAR"
        }, 
        {
            "bufferView" : 13, 
            "componentType" : 5126, 
            "count" : 100, 
            "max" : [
                0.9202876091003418, 
                2.06227970123291, 
                0.7117409706115723
            ], 
            "min" : [
                -0.9157243967056274, 
                0.0, 
                -1.3718364238739014
            ], 
            "type" : "VEC3"
        }, 
        {
            "bufferView" : 14, 
            "componentType" : 5126, 
            "count" : 100, 
            "max" : [
                0.999993622303009, 
                1.0, 
                1.0
            ], 
            "min" : [
                -0.9999728202819824, 
                -1.0, 
                -0.9999632835388184
            ], 
            "type" : "VEC3"
        }, 
        {
            "bufferView" : 15, 
            "componentType" : 5121, 
            "count" : 54, 
            "max" : [
                35
            ], 
            "min" : [
                0
            ], 
            "type" : "SCALAR"
        }, 
        {
            "bufferView" : 16, 
            "componentType" : 5126, 
            "count" : 36, 
            "max" : [
                2.2287697792053223, 
                8.771012306213379, 
                1.1565505266189575
            ], 
            "min" : [
                1.354922890663147, 
                0.620184063911438, 
                0.32786136865615845
            ], 
            "type" : "VEC3"
        }, 
        {
            "bufferView" : 17, 
            "componentType" : 5126, 
            "count" : 36, 
            "max" : [
                0.9232276678085327, 
                0.037555795162916183, 
                0.38241416215896606
            ], 
            "min" : [
                0.9232274889945984, 
                0.03755553439259529, 
                0.38241395354270935
            ], 
            "type" : "VEC3"
        }, 
        {
            "bufferView" : 18, 
            "componentType" : 5123, 
            "count" : 1122, 
            "max" : [
                739
            ], 
            "min" : [
                0
            ], 
            "type" : "SCALAR"
        }, 
        {
            "bufferView" : 19, 
            "componentType" : 5126, 
            "count" : 740, 
            "max" : [
                3.0892882347106934, 
                10.28221607208252, 
                3.0892879962921143
            ], 
            "min" : [
                -3.089287757873535, 
                -1.0434123277664185, 
                -3.0892879962921143
            ], 
            "type" : "VEC3"
        }, 
        {
            "bufferView" : 20, 
            "componentType" : 5126, 
            "count" : 740, 
            "max" : [
                0.9238795042037964, 
                1.0, 
                0.9238795042037964
            ], 
            "min" : [
                -0.9238796234130859, 
                -0.9992950558662415, 
                -0.9238801002502441
            ], 
            "type" : "VEC3"
        }, 
        {
            "bufferView" : 21, 
            "componentType" : 5123, 
            "count" : 1110, 
            "max" : [
                663
            ], 
            "min" : [
                0
            ], 
            "type" : "SCALAR"
        }, 
        {
            "bufferView" : 22, 
            "componentType" : 5126, 
            "count" : 664, 
            "max" : [
                1.7840975522994995, 
                14.637467384338379, 
                1.78409743309021
            ], 
            "min" : [
                -1.7840975522994995, 
                10.28221607208252, 
                -1.7840975522994995
            ], 
            "type" : "VEC3"
        }, 
        {
            "bufferView" : 23, 
            "componentType" : 5126, 
            "count" : 664, 
            "max" : [
                1.0, 
                1.0, 
                1.0
            ], 
            "min" : [
                -1.0, 
                -1.0, 
                -1.0
            ], 
            "type" : "VEC3"
        }
    ], 
    "asset" : {
        "generator" : "Khronos Blender glTF 2.0 exporter", 
        "version" : "2.0"
    }, 
    "bufferViews" : [
        {
            "buffer" : 0, 
            "byteLength" : 1536, 
            "byteOffset" : 0, 
            "target" : 34963
        }, 
        {
            "buffer" : 0, 
            "byteLength" : 6144, 
            "byteOffset" : 1536, 
            "target" : 34962
        }, 
        {
            "buffer" : 0, 
            "byteLength" : 6144, 
            "byteOffset" : 7680, 
            "target" : 34962
        }, 
        {
            "buffer" : 0, 
            "byteLength" : 2112, 
            "byteOffset" : 13824, 
            "target" : 34963
        }, 
        {
            "buffer" : 0, 
            "byteLength" : 7464, 
            "byteOffset" : 15936, 
            "target" : 34962
        }, 
        {
            "buffer" : 0, 
            "byteLength" : 7464, 
            "byteOffset" : 23400, 
            "target" : 34962
        }, 
        {
            "buffer" : 0, 
            "byteLength" : 180, 
            "byteOffset" : 30864, 
            "target" : 34963
        }, 
        {
            "buffer" : 0, 
            "byteLength" : 1440, 
            "byteOffset" : 31044, 
            "target" : 34962
        }, 
        {
            "buffer" : 0, 
            "byteLength" : 1440, 
            "byteOffset" : 32484, 
            "target" : 34962
        }, 
        {
            "buffer" : 0, 
            "byteLength" : 6, 
            "byteOffset" : 33924, 
            "target" : 34963
        }, 
        {
            "buffer" : 0, 
            "byteLength" : 48, 
            "byteOffset" : 33932, 
            "target" : 34962
        }, 
        {
            "buffer" : 0, 
            "byteLength" : 48, 
            "byteOffset" : 33980, 
            "target" : 34962
        }, 
        {
            "buffer" : 0, 
            "byteLength" : 150, 
            "byteOffset" : 34028, 
            "target" : 34963
        }, 
        {
            "buffer" : 0, 
            "byteLength" : 1200, 
            "byteOffset" : 34180, 
            "target" : 34962
        }, 
        {
            "buffer" : 0, 
            "byteLength" : 1200, 
            "byteOffset" : 35380, 
            "target" : 34962
        }, 
        {
            "buffer" : 0, 
            "byteLength" : 54, 
            "byteOffset" : 36580, 
            "target" : 34963
        }, 
        {
            "buffer" : 0, 
            "byteLength" : 432, 
            "byteOffset" : 36636, 
            "target" : 34962
        }, 
        {
            "buffer" : 0, 
            "byteLength" : 432, 
            "byteOffset" : 37068, 
            "target" : 34962
        }, 
        {
            "buffer" : 0, 
            "byteLength" : 2244, 
            "byteOffset" : 37500, 
            "target" : 34963
        }, 
        {
            "buffer" : 0, 
            "byteLength" : 8880, 
            "byteOffset" : 39744, 
            "target" : 34962
        }, 
        {
            "buffer" : 0, 
            "byteLength" : 8880, 
            "byteOffset" : 48624, 
            "target" : 34962
        }, 
        {
            "buffer" : 0, 
            "byteLength" : 2220, 
            "byteOffset" : 57504, 
            "target" : 34963
        }, 
        {
            "buffer" : 0, 
            "byteLength" : 7968, 
            "byteOffset" : 59724, 
            "target" : 34962
        }, 
        {
            "buffer" : 0, 
            "byteLength" : 7968, 
            "byteOffset" : 67692, 
            "target" : 34962
        }
    ], 
    "buffers" : [
        {
            "byteLength" : 75660, 
            "uri" : "lighthouse.bin"
        }
    ], 
    "materials" : [
        {
            "name" : "glass", 
            "pbrMetallicRoughness" : {
                "baseColorFactor" : [
                    0.10422089255185263, 
                    0.13976413219815687, 
                    0.16152069809318625, 
                    1.0
                ], 
                "metallicFactor" : 0.0
            }
        }, 
        {
            "name" : "Lighthouse", 
            "pbrMetallicRoughness" : {
                "baseColorFactor" : [
                    0.7879084704504677, 
                    0.7879084704504677, 
                    0.7879084704504677, 
                    1.0
                ], 
                "metallicFactor" : 0.0
            }
        }, 
        {
            "name" : "LightTop", 
            "pbrMetallicRoughness" : {
                "baseColorFactor" : [
                    0.2585146227257642, 
                    0.008263860020993052, 
                    0.006854500723697254, 
                    1.0
                ], 
                "metallicFactor" : 0.0
            }
        }, 
        {
            "name" : "railings", 
            "pbrMetallicRoughness" : {
                "baseColorFactor" : [
                    0.11006692811946461, 
                    0.11006692811946461, 
                    0.11006692811946461, 
                    1.0
                ], 
                "metallicFactor" : 0.0
            }
        }
    ], 
    "meshes" : [
        {
            "name" : "Cube.001", 
            "primitives" : [
                {
                    "attributes" : {
                        "NORMAL" : 2, 
                        "POSITION" : 1
                    }, 
                    "indices" : 0, 
                    "material" : 3
                }, 
                {
                    "attributes" : {
                        "NORMAL" : 5, 
                        "POSITION" : 4
                    }, 
                    "indices" : 3, 
                    "material" : 1
                }
            ]
        }, 
        {
            "name" : "Plane", 
            "primitives" : [
                {
                    "attributes" : {
                        "NORMAL" : 8, 
                        "POSITION" : 7
                    }, 
                    "indices" : 6, 
                    "material" : 1
                }
            ]
        }, 
        {
            "name" : "Cube", 
            "primitives" : [
                {
                    "attributes" : {
                        "NORMAL" : 11, 
                        "POSITION" : 10
                    }, 
                    "indices" : 9, 
                    "material" : 0
                }, 
                {
                    "attributes" : {
                        "NORMAL" : 14, 
                        "POSITION" : 13
                    }, 
                    "indices" : 12, 
                    "material" : 1
                }
            ]
        }, 
        {
            "name" : "Cylinder", 
            "primitives" : [
                {
                    "attributes" : {
                        "NORMAL" : 17, 
                        "POSITION" : 16
                    }, 
                    "indices" : 15, 
                    "material" : 0
                }, 
                {
                    "attributes" : {
                        "NORMAL" : 20, 
                        "POSITION" : 19
                    }, 
                    "indices" : 18, 
                    "material" : 1
                }, 
                {
                    "attributes" : {
                        "NORMAL" : 23, 
                        "POSITION" : 22
                    }, 
                    "indices" : 21, 
                    "material" : 2
                }
            ]
        }
    ], 
    "nodes" : [
        {
            "mesh" : 2, 
            "name" : "Cube", 
            "rotation" : [
                0.0, 
                -0.1950903683900833, 
                -0.0, 
                0.9807853698730469
            ], 
            "scale" : [
                1.0, 
                1.8136299848556519, 
                1.0
            ], 
            "translation" : [
                -1.349486231803894, 
                -0.0064841508865356445, 
                3.289412260055542
            ]
        }, 
        {
            "name" : "Empty", 
            "translation" : [
                0.0, 
                12.234668731689453, 
                -0.0
            ]
        }, 
        {
            "mesh" : 3, 
            "name" : "lighthouse", 
            "translation" : [
                0.017049221321940422, 
                1.0369281768798828, 
                -0.0
            ]
        }, 
        {
            "mesh" : 1, 
            "name" : "Plane", 
            "translation" : [
                1.8546702861785889, 
                1.0369281768798828, 
                -2.3833725452423096
            ]
        }, 
        {
            "mesh" : 0, 
            "name" : "railings", 
            "rotation" : [
                0.0, 
                0.3826834559440613, 
                -0.0, 
                0.9238795638084412
            ], 
            "scale" : [
                0.9999999403953552, 
                1.0, 
                0.9999999403953552
            ], 
            "translation" : [
                0.0, 
                12.234668731689453, 
                -0.0
            ]
        }
    ], 
    "scene" : 0, 
    "scenes" : [
        {
            "name" : "Scene", 
            "nodes" : [
                1, 
                4, 
                3, 
                0, 
                2
            ]
        }
    ]
}
